<svg xmlns="http://www.w3.org/2000/svg" xmlns:xlink="http://www.w3.org/1999/xlink" viewBox="0 0 512 512" width="512" height="512" preserveAspectRatio="xMidYMid meet" style="width: 100%; height: 100%; transform: translate3d(0px, 0px, 0px); content-visibility: visible;"><defs><clipPath id="__lottie_element_84106"><rect width="512" height="512" x="0" y="0"></rect></clipPath></defs><g clip-path="url(#__lottie_element_84106)"><g transform="matrix(1,0,0,1,256,256)" opacity="1" style="display: block;"><g opacity="1" transform="matrix(1,0,0,1,0,0)"><path stroke-linecap="butt" stroke-linejoin="miter" fill-opacity="0" stroke-miterlimit="10" stroke="rgb(0,0,0)" stroke-opacity="1" stroke-width="1" d=" M190.45899963378906,84.08799743652344 C200.12600708007812,111.65699768066406 209.79400634765625,139.2270050048828 219.46099853515625,166.79600524902344 C226.72900390625,187.5240020751953 233.99899291992188,208.2519989013672 241.26699829101562,228.97999572753906 C242.6300048828125,232.8679962158203 243.99400329589844,236.7570037841797 245.35699462890625,240.64500427246094"></path></g><g opacity="1" transform="matrix(1,0,0,1,0,0)"><path stroke-linecap="butt" stroke-linejoin="miter" fill-opacity="0" stroke-miterlimit="10" stroke="rgb(0,0,0)" stroke-opacity="1" stroke-width="1" d=" M169.11500549316406,84.41799926757812 C173.88999938964844,136.2030029296875 177.0050048828125,189.16000366210938 181.04400634765625,240.64500427246094"></path></g><g opacity="1" transform="matrix(1,0,0,1,0,0)"><path stroke-linecap="butt" stroke-linejoin="miter" fill-opacity="0" stroke-miterlimit="10" stroke="rgb(0,0,0)" stroke-opacity="1" stroke-width="1" d=" M118.62300109863281,84.08799743652344 C108.95600128173828,111.65699768066406 99.28800201416016,139.2270050048828 89.62100219726562,166.79600524902344 C82.35299682617188,187.5240020751953 75.08399963378906,208.2519989013672 67.81600189208984,228.97999572753906 C66.4530029296875,232.8679962158203 65.08899688720703,236.7570037841797 63.72600173950195,240.64500427246094"></path></g><g opacity="1" transform="matrix(1,0,0,1,0,0)"><path stroke-linecap="butt" stroke-linejoin="miter" fill-opacity="0" stroke-miterlimit="10" stroke="rgb(0,0,0)" stroke-opacity="1" stroke-width="1" d=" M139.9669952392578,84.41799926757812 C135.19200134277344,136.2030029296875 132.0780029296875,189.16000366210938 128.03900146484375,240.64500427246094"></path></g><g opacity="1" transform="matrix(1,0,0,1,0,0)"><path fill="rgb(255,255,255)" fill-opacity="1" d=" M122.88800048828125,96.23300170898438 C122.88800048828125,96.23300170898438 128.33299255371094,87.28500366210938 143.92999267578125,84.88200378417969 C169.5399932861328,80.93699645996094 185.11399841308594,70.96900177001953 195.70399475097656,62.87099838256836 C206.36399841308594,54.71900177001953 236.70799255371094,-34.494998931884766 235.66900634765625,-35.28099822998047 C235.66900634765625,-35.28099822998047 253.52699279785156,-35.28099822998047 253.52699279785156,-35.28099822998047 C253.52699279785156,-35.28099822998047 214.531005859375,96.23300170898438 214.531005859375,96.23300170898438 C214.531005859375,96.23300170898438 122.88800048828125,96.23300170898438 122.88800048828125,96.23300170898438z"></path><path stroke-linecap="butt" stroke-linejoin="miter" fill-opacity="0" stroke-miterlimit="10" stroke="rgb(0,0,0)" stroke-opacity="1" stroke-width="1" d=" M122.88800048828125,96.23300170898438 C122.88800048828125,96.23300170898438 128.33299255371094,87.28500366210938 143.92999267578125,84.88200378417969 C169.5399932861328,80.93699645996094 185.11399841308594,70.96900177001953 195.70399475097656,62.87099838256836 C206.36399841308594,54.71900177001953 236.70799255371094,-34.494998931884766 235.66900634765625,-35.28099822998047 C235.66900634765625,-35.28099822998047 253.52699279785156,-35.28099822998047 253.52699279785156,-35.28099822998047 C253.52699279785156,-35.28099822998047 214.531005859375,96.23300170898438 214.531005859375,96.23300170898438 C214.531005859375,96.23300170898438 122.88800048828125,96.23300170898438 122.88800048828125,96.23300170898438z"></path></g><g opacity="1" transform="matrix(1,0,0,1,0,0)"><path fill="rgb(36,43,43)" fill-opacity="1" d=" M186.44900512695312,-35.28099822998047 C186.44900512695312,-35.28099822998047 157.14300537109375,54.71900177001953 146.48300170898438,62.87099838256836 C135.89300537109375,70.96900177001953 120.31900024414062,80.93699645996094 94.70899963378906,84.88200378417969 C79.11199951171875,87.28500366210938 73.66699981689453,96.23300170898438 73.66699981689453,96.23300170898438 C73.66699981689453,96.23300170898438 122.88800048828125,96.23300170898438 122.88800048828125,96.23300170898438 C122.88800048828125,96.23300170898438 128.33299255371094,87.28500366210938 143.92999267578125,84.88200378417969 C169.5399932861328,80.93699645996094 185.11399841308594,70.96900177001953 195.70399475097656,62.87099838256836 C206.36399841308594,54.71900177001953 236.70799255371094,-34.494998931884766 235.66900634765625,-35.28099822998047 C235.66900634765625,-35.28099822998047 186.44900512695312,-35.28099822998047 186.44900512695312,-35.28099822998047z"></path><path stroke-linecap="butt" stroke-linejoin="miter" fill-opacity="0" stroke-miterlimit="10" stroke="rgb(0,0,0)" stroke-opacity="1" stroke-width="1" d=" M186.44900512695312,-35.28099822998047 C186.44900512695312,-35.28099822998047 157.14300537109375,54.71900177001953 146.48300170898438,62.87099838256836 C135.89300537109375,70.96900177001953 120.31900024414062,80.93699645996094 94.70899963378906,84.88200378417969 C79.11199951171875,87.28500366210938 73.66699981689453,96.23300170898438 73.66699981689453,96.23300170898438 C73.66699981689453,96.23300170898438 122.88800048828125,96.23300170898438 122.88800048828125,96.23300170898438 C122.88800048828125,96.23300170898438 128.33299255371094,87.28500366210938 143.92999267578125,84.88200378417969 C169.5399932861328,80.93699645996094 185.11399841308594,70.96900177001953 195.70399475097656,62.87099838256836 C206.36399841308594,54.71900177001953 236.70799255371094,-34.494998931884766 235.66900634765625,-35.28099822998047 C235.66900634765625,-35.28099822998047 186.44900512695312,-35.28099822998047 186.44900512695312,-35.28099822998047z"></path></g></g><g transform="matrix(1,0,0,1,256,256)" opacity="1" style="display: block;"><g opacity="1" transform="matrix(0.9786803126335144,-0.20538939535617828,0.20538939535617828,0.9786803126335144,12.377899169921875,22.05797576904297)"><g opacity="1" transform="matrix(1,0,0,1,0,0)"><path fill="rgb(255,207,197)" fill-opacity="1" d=" M100.08100128173828,-60.2869987487793 C100.08100128173828,-60.2869987487793 73.36799621582031,-30.496000289916992 50.71900177001953,-29.344999313354492 C28.06999969482422,-28.194000244140625 3.4769999980926514,-99.56800079345703 3.4769999980926514,-99.56800079345703 C3.4769999980926514,-99.56800079345703 21.12700080871582,-112.61799621582031 22.19499969482422,-112.85299682617188 C23.26300048828125,-113.08799743652344 53.547000885009766,-66.58899688720703 53.547000885009766,-66.58899688720703 C53.547000885009766,-66.58899688720703 72.14199829101562,-84.27100372314453 72.14199829101562,-84.27100372314453 C72.14199829101562,-84.27100372314453 100.08100128173828,-60.2869987487793 100.08100128173828,-60.2869987487793z"></path></g><g opacity="1" transform="matrix(1,0,0,1,0,0)"><path fill="rgb(255,65,72)" fill-opacity="1" d=" M59.31399917602539,-74.4749984741211 C59.31399917602539,-74.4749984741211 68.04000091552734,-63.917999267578125 68.04000091552734,-63.917999267578125 C68.04000091552734,-63.917999267578125 76.29100036621094,-53.91999816894531 76.29100036621094,-53.91999816894531 C76.29100036621094,-53.91999816894531 83.94400024414062,-44.65800094604492 83.94400024414062,-44.65800094604492 C83.94400024414062,-44.65800094604492 116.58200073242188,-85.83699798583984 116.58200073242188,-85.83699798583984 C116.58200073242188,-85.83699798583984 121.36499786376953,-102.63200378417969 121.36499786376953,-102.63200378417969 C121.36499786376953,-102.63200378417969 106.74800109863281,-109.62899780273438 93.1240005493164,-103.29100036621094 C83.18299865722656,-98.67400360107422 59.31399917602539,-74.4749984741211 59.31399917602539,-74.4749984741211z"></path></g><g opacity="1" transform="matrix(1,0,0,1,0,0)"><path fill="rgb(0,0,0)" fill-opacity="1" d=" M68.04000091552734,-63.917999267578125 C68.04000091552734,-63.917999267578125 83.94400024414062,-44.65800094604492 83.94400024414062,-44.65800094604492 C83.94400024414062,-44.65800094604492 88.71600341796875,-82.90699768066406 88.71600341796875,-82.90699768066406 C88.71600341796875,-82.90699768066406 68.04000091552734,-63.917999267578125 68.04000091552734,-63.917999267578125z"></path></g><g opacity="1" transform="matrix(1,0,0,1,0,0)"><path fill="rgb(255,207,197)" fill-opacity="1" d=" M22.19499969482422,-112.85299682617188 C22.19499969482422,-112.85299682617188 16.538999557495117,-136.1269989013672 12.338000297546387,-137.7689971923828 C9.102999687194824,-139.0330047607422 7.6479997634887695,-128.82000732421875 7.6479997634887695,-128.82000732421875 C7.6479997634887695,-128.82000732421875 -12.5,-155.13999938964844 -15.6899995803833,-152.6649932861328 C-18.8799991607666,-150.19000244140625 -6.692999839782715,-136.48899841308594 -6.692999839782715,-136.48899841308594 C-6.692999839782715,-136.48899841308594 -10.02400016784668,-138.6219940185547 -11.416999816894531,-136.2989959716797 C-12.770999908447266,-134.0399932861328 -10.803999900817871,-132.33099365234375 -10.803999900817871,-132.33099365234375 C-10.803999900817871,-132.33099365234375 -13.027999877929688,-133.85000610351562 -14.746999740600586,-132.4029998779297 C-16.48699951171875,-130.93800354003906 -14.611000061035156,-128.13499450683594 -14.611000061035156,-128.13499450683594 C-14.611000061035156,-128.13499450683594 -17.320999145507812,-128.42599487304688 -17.48200035095215,-125.51599884033203 C-17.70400047302246,-121.5 -3.2790000438690186,-105.25299835205078 -1.065999984741211,-103.37899780273438 C1.1469999551773071,-101.50499725341797 3.4769999980926514,-99.56800079345703 3.4769999980926514,-99.56800079345703 C3.4769999980926514,-99.56800079345703 22.19499969482422,-112.85299682617188 22.19499969482422,-112.85299682617188z"></path></g><g opacity="1" transform="matrix(1,0,0,1,0,0)"><path stroke-linecap="butt" stroke-linejoin="miter" fill-opacity="0" stroke-miterlimit="10" stroke="rgb(255,178,159)" stroke-opacity="1" stroke-width="1" d=" M-4.177000045776367,-132.04200744628906 C-4.177000045776367,-132.04200744628906 2.3299999237060547,-125.3740005493164 -0.6179999709129333,-122.56099700927734 C-2.6419999599456787,-120.62999725341797 -10.920999526977539,-132.44500732421875 -10.920999526977539,-132.44500732421875"></path></g><g opacity="1" transform="matrix(1,0,0,1,0,0)"><path stroke-linecap="butt" stroke-linejoin="miter" fill-opacity="0" stroke-miterlimit="10" stroke="rgb(255,178,159)" stroke-opacity="1" stroke-width="1" d=" M-4.659999847412109,-124.54399871826172 C-4.659999847412109,-124.54399871826172 -2.2899999618530273,-120.91600036621094 -3.8940000534057617,-119.11900329589844 C-6.810999870300293,-115.85199737548828 -14.392000198364258,-128.49600219726562 -14.392000198364258,-128.49600219726562"></path></g><g opacity="1" transform="matrix(1,0,0,1,0,0)"><path stroke-linecap="butt" stroke-linejoin="miter" fill-opacity="0" stroke-miterlimit="10" stroke="rgb(255,178,159)" stroke-opacity="1" stroke-width="1" d=" M-7.189000129699707,-119.76000213623047 C-7.189000129699707,-119.76000213623047 -4.151000022888184,-117.1449966430664 -6.014999866485596,-115.00800323486328 C-7.879000186920166,-112.87100219726562 -14.815999984741211,-119.8550033569336 -14.815999984741211,-119.8550033569336"></path></g><g opacity="1" transform="matrix(1,0,0,1,0,0)"><path stroke-linecap="butt" stroke-linejoin="miter" fill-opacity="0" stroke-miterlimit="10" stroke="rgb(255,178,159)" stroke-opacity="1" stroke-width="1" d=" M7.6479997634887695,-128.82000732421875 C7.6479997634887695,-128.82000732421875 5.0229997634887695,-120.79900360107422 9.944999694824219,-117.25599670410156"></path></g></g></g><g transform="matrix(1,0,0,1,256,256)" opacity="1" style="display: block;"><g opacity="1" transform="matrix(1,0,0,1,0,0)"><g opacity="1" transform="matrix(1,0,0,1,0,0)"><g opacity="1" transform="matrix(1,0,0,1,0,0)"><path fill="rgb(0,0,0)" fill-opacity="1" d=" M-160.7050018310547,194.8489990234375 C-160.7050018310547,194.8489990234375 -125.75499725341797,196.8939971923828 -125.75499725341797,196.8939971923828 C-125.75499725341797,196.8939971923828 -114.81999969482422,195.0240020751953 -114.81999969482422,195.0240020751953 C-114.81999969482422,195.0240020751953 -88.94400024414062,216.97000122070312 -88.94400024414062,216.97000122070312 C-88.94400024414062,216.97000122070312 -102.80599975585938,239.3300018310547 -102.80599975585938,239.3300018310547 C-103.29000091552734,240.64500427246094 -104.83499908447266,241.1719970703125 -106.00299835205078,240.4499969482422 C-106.00299835205078,240.4499969482422 -167.08799743652344,202.66400146484375 -167.08799743652344,202.66400146484375 C-168.11500549316406,202.0290069580078 -168.4320068359375,200.68299865722656 -167.7969970703125,199.656005859375 C-167.7969970703125,199.656005859375 -166.42599487304688,197.43899536132812 -166.42599487304688,197.43899536132812 C-165.2169952392578,195.48500061035156 -162.97300720214844,194.4669952392578 -160.7050018310547,194.8489990234375z"></path></g><g opacity="1" transform="matrix(1,0,0,1,0,0)"><path fill="rgb(255,207,197)" fill-opacity="1" d=" M-114.81999969482422,195.0240020751953 C-114.81999969482422,195.0240020751953 -98.9489974975586,169.2030029296875 -98.9489974975586,169.2030029296875 C-98.9489974975586,169.2030029296875 -77.25399780273438,198.11099243164062 -77.25399780273438,198.11099243164062 C-77.25399780273438,198.11099243164062 -88.94400024414062,216.97000122070312 -88.94400024414062,216.97000122070312 C-103.54199981689453,214.68800354003906 -112.96499633789062,206.53599548339844 -114.81999969482422,195.0240020751953z"></path></g><g opacity="1" transform="matrix(1,0,0,1,0,0)"><path stroke-linecap="butt" stroke-linejoin="miter" fill-opacity="0" stroke-miterlimit="10" stroke="rgb(255,255,255)" stroke-opacity="1" stroke-width="1" d=" M-135.36399841308594,197.10800170898438 C-135.36399841308594,197.10800170898438 -131.86300659179688,199.74000549316406 -132.1719970703125,204.71099853515625"></path></g><g opacity="1" transform="matrix(1,0,0,1,0,0)"><path stroke-linecap="butt" stroke-linejoin="miter" fill-opacity="0" stroke-miterlimit="10" stroke="rgb(255,255,255)" stroke-opacity="1" stroke-width="1" d=" M-143.0449981689453,196.75900268554688 C-143.0449981689453,196.75900268554688 -139.54299926757812,199.39199829101562 -139.8520050048828,204.36300659179688"></path></g><g opacity="1" transform="matrix(1,0,0,1,0,0)"><path fill="rgb(0,122,253)" fill-opacity="1" d=" M26.496000289916992,34.29100036621094 C26.496000289916992,34.29100036621094 -4.843999862670898,43.60900115966797 -13.3149995803833,50.17100143432617 C-33.81800079345703,66.05500030517578 -106.08100128173828,166.11300659179688 -106.08100128173828,166.11300659179688 C-106.08100128173828,166.11300659179688 -72.58000183105469,200.6529998779297 -72.58000183105469,200.6529998779297 C-72.58000183105469,200.6529998779297 11.859999656677246,96.23300170898438 11.859999656677246,96.23300170898438 C11.859999656677246,96.23300170898438 81.08999633789062,69.91799926757812 81.08999633789062,69.91799926757812 C81.08999633789062,69.91799926757812 26.496000289916992,34.29100036621094 26.496000289916992,34.29100036621094z"></path></g><g opacity="1" transform="matrix(1,0,0,1,0,0)"><path fill="rgb(0,122,253)" fill-opacity="1" d=" M-112.13099670410156,164.1820068359375 C-114.27899932861328,166.29200744628906 -114.65599822998047,169.35299682617188 -113.13899993896484,171.33900451660156 C-112.98400115966797,171.54200744628906 -112.81600189208984,171.7239990234375 -112.6240005493164,171.8990020751953 C-112.6240005493164,171.8990020751953 -77.39099884033203,204.5070037841797 -77.39099884033203,204.5070037841797 C-75.2979965209961,206.4499969482422 -71.69200134277344,206.13499450683594 -69.32599639892578,203.79600524902344 C-67.1780014038086,201.68600463867188 -66.79499816894531,198.6320037841797 -68.31199645996094,196.64599609375 C-68.46700286865234,196.4429931640625 -68.63500213623047,196.26100158691406 -68.8270034790039,196.08599853515625 C-68.8270034790039,196.08599853515625 -104.06700134277344,163.4709930419922 -104.06700134277344,163.4709930419922 C-106.15399932861328,161.53599548339844 -109.76899719238281,161.85800170898438 -112.13099670410156,164.1820068359375z"></path></g><g opacity="1" transform="matrix(1,0,0,1,0,0)"><path fill="rgb(0,0,0)" fill-opacity="1" d=" M-98.23999786376953,155.35899353027344 C-98.23999786376953,155.35899353027344 -77.25399780273438,188.28700256347656 -77.25399780273438,188.28700256347656 C-77.25399780273438,188.28700256347656 -104.06700134277344,163.4709930419922 -104.06700134277344,163.4709930419922 C-104.06700134277344,163.4709930419922 -98.23999786376953,155.35899353027344 -98.23999786376953,155.35899353027344z"></path></g></g><g opacity="1" transform="matrix(1,0,0,1,0,0)"><g opacity="1" transform="matrix(1,0,0,1,0,0)"><path fill="rgb(0,0,0)" fill-opacity="1" d=" M11.130999565124512,230.79299926757812 C11.130999565124512,230.79299926757812 33.31999969482422,203.71299743652344 33.31999969482422,203.71299743652344 C33.31999969482422,203.71299743652344 38.23099899291992,193.76600646972656 38.23099899291992,193.76600646972656 C38.23099899291992,193.76600646972656 71.19300079345703,185.72000122070312 71.19300079345703,185.72000122070312 C71.19300079345703,185.72000122070312 81.14299774169922,210.0749969482422 81.14299774169922,210.0749969482422 C81.9229965209961,211.23899841308594 81.44100189208984,212.7989959716797 80.16999816894531,213.32000732421875 C80.16999816894531,213.32000732421875 13.704999923706055,240.55099487304688 13.704999923706055,240.55099487304688 C12.588000297546387,241.00900268554688 11.312000274658203,240.4739990234375 10.854000091552734,239.35699462890625 C10.854000091552734,239.35699462890625 9.866000175476074,236.94500732421875 9.866000175476074,236.94500732421875 C8.994999885559082,234.81900024414062 9.48900032043457,232.4040069580078 11.130999565124512,230.79299926757812z"></path></g><g opacity="1" transform="matrix(1,0,0,1,0,0)"><path fill="rgb(255,207,197)" fill-opacity="1" d=" M38.23099899291992,193.76600646972656 C38.23099899291992,193.76600646972656 26.660999298095703,165.7530059814453 26.660999298095703,165.7530059814453 C26.660999298095703,165.7530059814453 62.79899978637695,165.18099975585938 62.79899978637695,165.18099975585938 C62.79899978637695,165.18099975585938 71.19300079345703,185.72000122070312 71.19300079345703,185.72000122070312 C60.77000045776367,196.19200134277344 48.63600158691406,199.0290069580078 38.23099899291992,193.76600646972656z"></path></g><g opacity="1" transform="matrix(1,0,0,1,0,0)"><path stroke-linecap="butt" stroke-linejoin="miter" fill-opacity="0" stroke-miterlimit="10" stroke="rgb(255,255,255)" stroke-opacity="1" stroke-width="1" d=" M27.847000122070312,211.61500549316406 C27.847000122070312,211.61500549316406 32.034000396728516,210.32699584960938 35.875,213.4980010986328"></path></g><g opacity="1" transform="matrix(1,0,0,1,0,0)"><path stroke-linecap="butt" stroke-linejoin="miter" fill-opacity="0" stroke-miterlimit="10" stroke="rgb(255,255,255)" stroke-opacity="1" stroke-width="1" d=" M23.05299949645996,217.625 C23.05299949645996,217.625 27.239999771118164,216.33799743652344 31.08099937438965,219.50900268554688"></path></g><g opacity="1" transform="matrix(1,0,0,1,0,0)"><path fill="rgb(0,122,253)" fill-opacity="1" d=" M183.79800415039062,44.45899963378906 C183.79800415039062,44.45899963378906 174.10800170898438,72.4229965209961 155.00399780273438,79.06800079345703 C135.89999389648438,85.71299743652344 57.766998291015625,90.83200073242188 57.766998291015625,90.83200073242188 C57.766998291015625,90.83200073242188 75.11399841308594,175.4969940185547 75.11399841308594,175.4969940185547 C75.11399841308594,175.4969940185547 27.472999572753906,183.61500549316406 27.472999572753906,183.61500549316406 C27.472999572753906,183.61500549316406 -10.699000358581543,75.90499877929688 2.796999931335449,45.428001403808594 C10.20300006866455,28.70199966430664 126.3489990234375,21.340999603271484 126.3489990234375,21.340999603271484 C126.3489990234375,21.340999603271484 183.79800415039062,44.45899963378906 183.79800415039062,44.45899963378906z"></path></g><g opacity="1" transform="matrix(1,0,0,1,0,0)"><path stroke-linecap="butt" stroke-linejoin="miter" fill-opacity="0" stroke-miterlimit="10" stroke="rgb(255,255,255)" stroke-opacity="1" stroke-width="1" d=" M4.059000015258789,99.43499755859375 C0.1599999964237213,79.26200103759766 -1.6820000410079956,60.24599838256836 1.6150000095367432,48.733001708984375"></path></g><g opacity="1" transform="matrix(1,0,0,1,0,0)"><path fill="rgb(0,0,0)" fill-opacity="1" d=" M22.579999923706055,168.9010009765625 C22.579999923706055,168.9010009765625 62.0629997253418,172.22300720214844 62.0629997253418,172.22300720214844 C62.0629997253418,172.22300720214844 25.579999923706055,178.1009979248047 25.579999923706055,178.1009979248047 C25.579999923706055,178.1009979248047 22.579999923706055,168.9010009765625 22.579999923706055,168.9010009765625z"></path></g><g opacity="1" transform="matrix(1,0,0,1,0,0)"><path fill="rgb(0,122,253)" fill-opacity="1" d=" M19.535999298095703,185.1649932861328 C19.93899917602539,188.1529998779297 22.31399917602539,190.30999755859375 25.006999969482422,190.30999755859375 C25.283000946044922,190.30999755859375 25.547000885009766,190.28599548339844 25.822999954223633,190.24000549316406 C25.822999954223633,190.24000549316406 76.79199981689453,182.02699279785156 76.79199981689453,182.02699279785156 C79.82499694824219,181.54299926757812 81.91300201416016,178.48500061035156 81.45700073242188,175.18499755859375 C81.05400085449219,172.19700622558594 78.69000244140625,170.0399932861328 75.99700164794922,170.0399932861328 C75.72100067138672,170.0399932861328 75.45600128173828,170.06399536132812 75.18000030517578,170.11000061035156 C75.18000030517578,170.11000061035156 24.201000213623047,178.322998046875 24.201000213623047,178.322998046875 C21.179000854492188,178.8070068359375 19.090999603271484,181.8769989013672 19.535999298095703,185.1649932861328z"></path></g></g></g><g opacity="1" transform="matrix(1,0,0,1,0,0)"><g opacity="1" transform="matrix(1,0,0,1,0,0)"><path fill="rgb(255,65,72)" fill-opacity="1" d=" M87.19599914550781,-99.38700103759766 C94.81800079345703,-111.8949966430664 150.13800048828125,-105.43199920654297 167.96499633789062,-94.3010025024414 C189.60000610351562,-80.79199981689453 190.45899963378906,48.733001708984375 190.45899963378906,48.733001708984375 C149.7729949951172,52.08700180053711 117.53800201416016,44.43600082397461 89.40499877929688,22.593000411987305 C89.40499877929688,22.593000411987305 70.97599792480469,-72.77100372314453 87.19599914550781,-99.38700103759766z"></path></g><g opacity="1" transform="matrix(1,0,0,1,0,0)"><path fill="rgb(0,0,0)" fill-opacity="1" d=" M140.8179931640625,-71.09300231933594 C140.8179931640625,-71.09300231933594 133.5469970703125,-27.96299934387207 133.5469970703125,-27.96299934387207 C133.5469970703125,-27.96299934387207 82.94999694824219,-21.260000228881836 82.94999694824219,-21.260000228881836 C82.94999694824219,-21.260000228881836 151.7550048828125,-6.395999908447266 151.8260040283203,-6.730000019073486 C151.89700317382812,-7.064000129699707 154.19500732421875,-36.20800018310547 154.19500732421875,-36.20800018310547 C154.19500732421875,-36.20800018310547 140.8179931640625,-71.09300231933594 140.8179931640625,-71.09300231933594z"></path></g></g></g><g transform="matrix(1,0,0,1,256,256)" opacity="1" style="display: block;"><g opacity="1" transform="matrix(1,0,0,1,0,0)"><path fill="rgb(255,207,197)" fill-opacity="1" d=" M147.08900451660156,-44.65800094604492 C147.08900451660156,-44.65800094604492 145.32899475097656,-18.820999145507812 145.32899475097656,-18.820999145507812 C145.32899475097656,-18.820999145507812 75.02899932861328,-21.56999969482422 75.02899932861328,-21.56999969482422 C75.02899932861328,-21.56999969482422 71.66400146484375,5.2779998779296875 71.66400146484375,5.2779998779296875 C71.66400146484375,5.2779998779296875 158.74200439453125,12.326000213623047 158.74200439453125,12.326000213623047 C175.80799865722656,14.130999565124512 189.5970001220703,-1.3660000562667847 185.8209991455078,-18.10700035095215 C185.8209991455078,-18.10700035095215 183.76199340820312,-54.10499954223633 183.76199340820312,-54.10499954223633 C183.76199340820312,-54.10499954223633 147.08900451660156,-44.65800094604492 147.08900451660156,-44.65800094604492z"></path></g><g opacity="1" transform="matrix(1,0,0,1,0,0)"><path fill="rgb(255,65,72)" fill-opacity="1" d=" M162.31300354003906,-97.177001953125 C186.61900329589844,-90.8550033569336 190.5500030517578,-32.28499984741211 190.5500030517578,-32.28499984741211 C176.2790069580078,-23.375999450683594 155.8979949951172,-29.763999938964844 142.4239959716797,-35.28099822998047 C142.4239959716797,-35.28099822998047 141.45899963378906,-56.61000061035156 140.6320037841797,-75.3030014038086 C139.91200256347656,-91.5780029296875 155.78199768066406,-98.8759994506836 162.31300354003906,-97.177001953125z"></path></g><g opacity="1" transform="matrix(1,0,0,1,0,0)"><path fill="rgb(255,207,197)" fill-opacity="1" d=" M27.106000900268555,-7.936999797821045 C30.108999252319336,-7.328000068664551 34.09700012207031,-10.809000015258789 35.67599868774414,-12.347999572753906 C35.12699890136719,-11.378999710083008 34.79999923706055,-10.38599967956543 35.0629997253418,-9.532999992370605 C35.768001556396484,-7.218999862670898 39.736000061035156,-8.449999809265137 39.9900016784668,-8.52299976348877 C39.7859992980957,-8.387999534606934 37.22800064086914,-6.736000061035156 39.814998626708984,-5.764999866485596 C42.37200164794922,-4.800000190734863 45.52299880981445,-4.9710001945495605 45.83599853515625,-4.980000019073486 C45.58599853515625,-4.875 43.499000549316406,-3.9579999446868896 46.71799850463867,-2.006999969482422 C50.13199996948242,0.0560000017285347 60.926998138427734,0.8119999766349792 60.926998138427734,0.8119999766349792 C60.926998138427734,0.8119999766349792 60.909000396728516,0.7979999780654907 60.909000396728516,0.7979999780654907 C63.263999938964844,1.1200000047683716 69.44599914550781,5.9710001945495605 71.66400146484375,5.2779998779296875 C71.66400146484375,5.2779998779296875 75.02899932861328,-21.56999969482422 75.02899932861328,-21.56999969482422 C75.02899932861328,-21.56999969482422 49.79499816894531,-37.81999969482422 46.96500015258789,-34.92499923706055 C44.13399887084961,-32.029998779296875 50.37300109863281,-22.538000106811523 50.37300109863281,-22.538000106811523 C50.37300109863281,-22.538000106811523 31.128999710083008,-25.31800079345703 29.773000717163086,-19.860000610351562 C28.41699981689453,-14.402000427246094 23.274999618530273,-8.71399974822998 27.106000900268555,-7.936999797821045z"></path></g></g><g transform="matrix(1,0,0,1,256,256)" opacity="1" style="display: block;"><g opacity="1" transform="matrix(1,0,0,1,0,0)"><path fill="rgb(255,255,255)" fill-opacity="1" d=" M-6.440000057220459,16.288999557495117 C-6.440000057220459,16.288999557495117 -6.448999881744385,16.301000595092773 -6.448999881744385,16.301000595092773 C-6.448999881744385,16.301000595092773 59.8129997253418,16.437999725341797 59.8129997253418,16.437999725341797 C63.11399841308594,16.450000762939453 65.7959976196289,13.777000427246094 65.80699920654297,10.46500015258789 C65.81099700927734,8.895000457763672 65.20800018310547,7.4770002365112305 64.23400115966797,6.408999919891357 C63.23699951171875,5.333000183105469 61.87099838256836,4.619999885559082 60.308998107910156,4.486000061035156 C60.308998107910156,4.486000061035156 24.299999237060547,1.5859999656677246 24.299999237060547,1.5859999656677246 C24.299999237060547,1.5859999656677246 -12.531999588012695,-1.3760000467300415 -12.531999588012695,-1.3760000467300415 C-12.531999588012695,-1.3760000467300415 -6.440000057220459,16.288999557495117 -6.440000057220459,16.288999557495117z"></path><path stroke-linecap="round" stroke-linejoin="round" fill-opacity="0" stroke="rgb(0,0,0)" stroke-opacity="1" stroke-width="1" d=" M-6.440000057220459,16.288999557495117 C-6.440000057220459,16.288999557495117 -6.448999881744385,16.301000595092773 -6.448999881744385,16.301000595092773 C-6.448999881744385,16.301000595092773 59.8129997253418,16.437999725341797 59.8129997253418,16.437999725341797 C63.11399841308594,16.450000762939453 65.7959976196289,13.777000427246094 65.80699920654297,10.46500015258789 C65.81099700927734,8.895000457763672 65.20800018310547,7.4770002365112305 64.23400115966797,6.408999919891357 C63.23699951171875,5.333000183105469 61.87099838256836,4.619999885559082 60.308998107910156,4.486000061035156 C60.308998107910156,4.486000061035156 24.299999237060547,1.5859999656677246 24.299999237060547,1.5859999656677246 C24.299999237060547,1.5859999656677246 -12.531999588012695,-1.3760000467300415 -12.531999588012695,-1.3760000467300415 C-12.531999588012695,-1.3760000467300415 -6.440000057220459,16.288999557495117 -6.440000057220459,16.288999557495117z"></path></g><g opacity="1" transform="matrix(1,0,0,1,0,0)"><path fill="rgb(0,0,0)" fill-opacity="1" d=" M-15.258000373840332,-1.3990000486373901 C-15.258000373840332,-1.3990000486373901 -9.164999961853027,16.263999938964844 -9.164999961853027,16.263999938964844 C-9.164999961853027,16.263999938964844 23.881999969482422,16.336000442504883 23.881999969482422,16.336000442504883 C23.881999969482422,16.336000442504883 21.576000213623047,1.5609999895095825 21.576000213623047,1.5609999895095825 C21.576000213623047,1.5609999895095825 -15.258000373840332,-1.3990000486373901 -15.258000373840332,-1.3990000486373901z"></path></g><g opacity="1" transform="matrix(1,0,0,1,0,0)"><path fill="rgb(255,255,255)" fill-opacity="1" d=" M-64.72100067138672,16.163999557495117 C-64.72100067138672,16.163999557495117 19.663000106811523,16.347999572753906 19.663000106811523,16.347999572753906 C19.663000106811523,16.347999572753906 8.609000205993652,-54.36800003051758 8.609000205993652,-54.36800003051758 C7.999000072479248,-58.27299880981445 4.638999938964844,-61.15299987792969 0.6869999766349792,-61.1619987487793 C0.6869999766349792,-61.1619987487793 -75.94000244140625,-61.32899856567383 -75.94000244140625,-61.32899856567383 C-80.87999725341797,-61.34000015258789 -84.66000366210938,-56.933998107910156 -83.89700317382812,-52.053001403808594 C-83.89700317382812,-52.053001403808594 -74.5510025024414,7.73199987411499 -74.5510025024414,7.73199987411499 C-73.79399871826172,12.57800006866455 -69.625,16.152999877929688 -64.72100067138672,16.163999557495117z"></path><path stroke-linecap="round" stroke-linejoin="round" fill-opacity="0" stroke="rgb(0,0,0)" stroke-opacity="1" stroke-width="1" d=" M-64.72100067138672,16.163999557495117 C-64.72100067138672,16.163999557495117 19.663000106811523,16.347999572753906 19.663000106811523,16.347999572753906 C19.663000106811523,16.347999572753906 8.609000205993652,-54.36800003051758 8.609000205993652,-54.36800003051758 C7.999000072479248,-58.27299880981445 4.638999938964844,-61.15299987792969 0.6869999766349792,-61.1619987487793 C0.6869999766349792,-61.1619987487793 -75.94000244140625,-61.32899856567383 -75.94000244140625,-61.32899856567383 C-80.87999725341797,-61.34000015258789 -84.66000366210938,-56.933998107910156 -83.89700317382812,-52.053001403808594 C-83.89700317382812,-52.053001403808594 -74.5510025024414,7.73199987411499 -74.5510025024414,7.73199987411499 C-73.79399871826172,12.57800006866455 -69.625,16.152999877929688 -64.72100067138672,16.163999557495117z"></path></g><g opacity="1" transform="matrix(1,0,0,1,0,0)"><path fill="rgb(0,0,0)" fill-opacity="1" d=" M-0.3050000071525574,-61.17300033569336 C1.8029999732971191,-59.92399978637695 3.3289999961853027,-57.7869987487793 3.734999895095825,-55.231998443603516 C3.734999895095825,-55.231998443603516 14.918000221252441,16.33099937438965 14.918000221252441,16.33099937438965 C14.918000221252441,16.33099937438965 19.663999557495117,16.343000411987305 19.663999557495117,16.343000411987305 C19.663999557495117,16.343000411987305 8.607000350952148,-54.362998962402344 8.607000350952148,-54.362998962402344 C7.998000144958496,-58.270999908447266 4.636000156402588,-61.154998779296875 0.6880000233650208,-61.16600036621094 C0.6880000233650208,-61.16600036621094 -0.3050000071525574,-61.17300033569336 -0.3050000071525574,-61.17300033569336z"></path></g><g opacity="1" transform="matrix(1,0,0,1,0,0)"><path fill="rgb(197,205,227)" fill-opacity="1" d=" M-45.150001525878906,-21.63800048828125 C-44.763999938964844,-17.23699951171875 -41.308998107910156,-13.559000015258789 -36.935001373291016,-12.935999870300293 C-33.47700119018555,-12.444000244140625 -30.302000045776367,-13.793999671936035 -28.260000228881836,-16.142000198364258 C-29.107999801635742,-15.937000274658203 -29.993000030517578,-15.835000038146973 -30.9060001373291,-15.836999893188477 C-37.32500076293945,-15.85099983215332 -42.52799987792969,-21.066999435424805 -42.513999938964844,-27.496000289916992 C-42.51300048828125,-28.117000579833984 -42.46500015258789,-28.738000869750977 -42.36899948120117,-29.33099937438965 C-44.29800033569336,-27.389999389648438 -45.41400146484375,-24.645000457763672 -45.150001525878906,-21.63800048828125z"></path></g><g opacity="1" transform="matrix(1,0,0,1,0,0)"><path fill="rgb(255,255,255)" fill-opacity="1" d=" M116.552001953125,21.027999877929688 C116.552001953125,22.320999145507812 116.02300262451172,23.50200080871582 115.1780014038086,24.347000122070312 C114.33300018310547,25.191999435424805 113.15299987792969,25.72100067138672 111.86000061035156,25.72100067138672 C111.86000061035156,25.72100067138672 -91.37300109863281,25.72100067138672 -91.37300109863281,25.72100067138672 C-93.95899963378906,25.72100067138672 -96.06600189208984,23.624000549316406 -96.06600189208984,21.027999877929688 C-96.06600189208984,19.735000610351562 -95.53600311279297,18.55500030517578 -94.69100189208984,17.709999084472656 C-93.83599853515625,16.864999771118164 -92.66600036621094,16.336000442504883 -91.37300109863281,16.336000442504883 C-91.37300109863281,16.336000442504883 111.86000061035156,16.336000442504883 111.86000061035156,16.336000442504883 C114.45600128173828,16.336000442504883 116.552001953125,18.43199920654297 116.552001953125,21.027999877929688z"></path><path stroke-linecap="butt" stroke-linejoin="miter" fill-opacity="0" stroke-miterlimit="10" stroke="rgb(0,0,0)" stroke-opacity="1" stroke-width="1" d=" M116.552001953125,21.027999877929688 C116.552001953125,22.320999145507812 116.02300262451172,23.50200080871582 115.1780014038086,24.347000122070312 C114.33300018310547,25.191999435424805 113.15299987792969,25.72100067138672 111.86000061035156,25.72100067138672 C111.86000061035156,25.72100067138672 -91.37300109863281,25.72100067138672 -91.37300109863281,25.72100067138672 C-93.95899963378906,25.72100067138672 -96.06600189208984,23.624000549316406 -96.06600189208984,21.027999877929688 C-96.06600189208984,19.735000610351562 -95.53600311279297,18.55500030517578 -94.69100189208984,17.709999084472656 C-93.83599853515625,16.864999771118164 -92.66600036621094,16.336000442504883 -91.37300109863281,16.336000442504883 C-91.37300109863281,16.336000442504883 111.86000061035156,16.336000442504883 111.86000061035156,16.336000442504883 C114.45600128173828,16.336000442504883 116.552001953125,18.43199920654297 116.552001953125,21.027999877929688z"></path></g><g opacity="1" transform="matrix(1,0,0,1,0,0)"><path fill="rgb(255,255,255)" fill-opacity="1" d=" M-43.270999908447266,25.72100067138672 C-43.270999908447266,25.72100067138672 -77.93499755859375,240.64500427246094 -77.93499755859375,240.64500427246094"></path><path stroke-linecap="butt" stroke-linejoin="miter" fill-opacity="0" stroke-miterlimit="10" stroke="rgb(0,0,0)" stroke-opacity="1" stroke-width="1" d=" M-43.270999908447266,25.72100067138672 C-43.270999908447266,25.72100067138672 -77.93499755859375,240.64500427246094 -77.93499755859375,240.64500427246094"></path></g><g opacity="1" transform="matrix(1,0,0,1,0,0)"><path fill="rgb(255,255,255)" fill-opacity="1" d=" M63.757999420166016,25.72100067138672 C63.757999420166016,25.72100067138672 98.4209976196289,240.64500427246094 98.4209976196289,240.64500427246094"></path><path stroke-linecap="butt" stroke-linejoin="miter" fill-opacity="0" stroke-miterlimit="10" stroke="rgb(0,0,0)" stroke-opacity="1" stroke-width="1" d=" M63.757999420166016,25.72100067138672 C63.757999420166016,25.72100067138672 98.4209976196289,240.64500427246094 98.4209976196289,240.64500427246094"></path></g></g><g transform="matrix(1,0,0,1,256,256)" opacity="1" style="display: block;"><g opacity="1" transform="matrix(1,0,0,1,0,0)"><path fill="rgb(255,255,255)" fill-opacity="1" d=" M-44.39500045776367,-213.37899780273438 C-44.39500045776367,-213.37899780273438 -44.39500045776367,-103.56199645996094 -44.39500045776367,-103.56199645996094 C-44.39500045776367,-94.63200378417969 -51.63800048828125,-87.38899993896484 -60.56800079345703,-87.38899993896484 C-60.56800079345703,-87.38899993896484 -67.18099975585938,-87.38899993896484 -67.18099975585938,-87.38899993896484 C-68.75,-87.38899993896484 -70.17400360107422,-86.45800018310547 -70.8030014038086,-85.00800323486328 C-70.8030014038086,-85.00800323486328 -73.63999938964844,-78.48600006103516 -73.63999938964844,-78.48600006103516 C-74.60700225830078,-76.26000213623047 -77.34300231933594,-75.4209976196289 -79.38600158691406,-76.7249984741211 C-79.38600158691406,-76.7249984741211 -95.10299682617188,-86.76799774169922 -95.10299682617188,-86.76799774169922 C-95.74099731445312,-87.16899871826172 -96.48100280761719,-87.38899993896484 -97.23799896240234,-87.38899993896484 C-97.23799896240234,-87.38899993896484 -208.2949981689453,-87.38899993896484 -208.2949981689453,-87.38899993896484 C-217.22500610351562,-87.38899993896484 -224.46800231933594,-94.63200378417969 -224.46800231933594,-103.56199645996094 C-224.46800231933594,-103.56199645996094 -224.46800231933594,-213.37899780273438 -224.46800231933594,-213.37899780273438 C-224.46800231933594,-222.3090057373047 -217.22500610351562,-229.552001953125 -208.2949981689453,-229.552001953125 C-208.2949981689453,-229.552001953125 -60.56800079345703,-229.552001953125 -60.56800079345703,-229.552001953125 C-51.63800048828125,-229.552001953125 -44.39500045776367,-222.3090057373047 -44.39500045776367,-213.37899780273438z"></path><path stroke-linecap="butt" stroke-linejoin="miter" fill-opacity="0" stroke-miterlimit="10" stroke="rgb(0,0,0)" stroke-opacity="1" stroke-width="1" d=" M-44.39500045776367,-213.37899780273438 C-44.39500045776367,-213.37899780273438 -44.39500045776367,-103.56199645996094 -44.39500045776367,-103.56199645996094 C-44.39500045776367,-94.63200378417969 -51.63800048828125,-87.38899993896484 -60.56800079345703,-87.38899993896484 C-60.56800079345703,-87.38899993896484 -67.18099975585938,-87.38899993896484 -67.18099975585938,-87.38899993896484 C-68.75,-87.38899993896484 -70.17400360107422,-86.45800018310547 -70.8030014038086,-85.00800323486328 C-70.8030014038086,-85.00800323486328 -73.63999938964844,-78.48600006103516 -73.63999938964844,-78.48600006103516 C-74.60700225830078,-76.26000213623047 -77.34300231933594,-75.4209976196289 -79.38600158691406,-76.7249984741211 C-79.38600158691406,-76.7249984741211 -95.10299682617188,-86.76799774169922 -95.10299682617188,-86.76799774169922 C-95.74099731445312,-87.16899871826172 -96.48100280761719,-87.38899993896484 -97.23799896240234,-87.38899993896484 C-97.23799896240234,-87.38899993896484 -208.2949981689453,-87.38899993896484 -208.2949981689453,-87.38899993896484 C-217.22500610351562,-87.38899993896484 -224.46800231933594,-94.63200378417969 -224.46800231933594,-103.56199645996094 C-224.46800231933594,-103.56199645996094 -224.46800231933594,-213.37899780273438 -224.46800231933594,-213.37899780273438 C-224.46800231933594,-222.3090057373047 -217.22500610351562,-229.552001953125 -208.2949981689453,-229.552001953125 C-208.2949981689453,-229.552001953125 -60.56800079345703,-229.552001953125 -60.56800079345703,-229.552001953125 C-51.63800048828125,-229.552001953125 -44.39500045776367,-222.3090057373047 -44.39500045776367,-213.37899780273438z"></path></g></g><g transform="matrix(1,0,0,1,256,256)" opacity="1" style="display: block;"><g opacity="1" transform="matrix(1,0,0,1,0,0)"><path fill="rgb(229,232,255)" fill-opacity="1" d=" M-199.1179962158203,-205.2480010986328 C-199.1179962158203,-205.2480010986328 -212.26800537109375,-205.2480010986328 -212.26800537109375,-205.2480010986328 C-212.26800537109375,-205.2480010986328 -212.26800537109375,-199.07200622558594 -212.26800537109375,-199.07200622558594 C-212.26800537109375,-199.07200622558594 -199.1179962158203,-199.07200622558594 -199.1179962158203,-199.07200622558594 C-199.1179962158203,-199.07200622558594 -199.1179962158203,-205.2480010986328 -199.1179962158203,-205.2480010986328z"></path></g><g opacity="1" transform="matrix(1,0,0,1,0,0)"><path fill="rgb(229,232,255)" fill-opacity="1" d=" M-199.1179962158203,-169.75999450683594 C-199.1179962158203,-169.75999450683594 -212.26800537109375,-169.75999450683594 -212.26800537109375,-169.75999450683594 C-212.26800537109375,-169.75999450683594 -212.26800537109375,-163.58399963378906 -212.26800537109375,-163.58399963378906 C-212.26800537109375,-163.58399963378906 -199.1179962158203,-163.58399963378906 -199.1179962158203,-163.58399963378906 C-199.1179962158203,-163.58399963378906 -199.1179962158203,-169.75999450683594 -199.1179962158203,-169.75999450683594z"></path></g><g opacity="1" transform="matrix(1,0,0,1,0,0)"><path fill="rgb(229,232,255)" fill-opacity="1" d=" M-199.1179962158203,-134.27200317382812 C-199.1179962158203,-134.27200317382812 -212.26800537109375,-134.27200317382812 -212.26800537109375,-134.27200317382812 C-212.26800537109375,-134.27200317382812 -212.26800537109375,-128.0959930419922 -212.26800537109375,-128.0959930419922 C-212.26800537109375,-128.0959930419922 -199.1179962158203,-128.0959930419922 -199.1179962158203,-128.0959930419922 C-199.1179962158203,-128.0959930419922 -199.1179962158203,-134.27200317382812 -199.1179962158203,-134.27200317382812z"></path></g></g><g transform="matrix(1,0,0,1,256,256)" opacity="1" style="display: block;"><g opacity="1" transform="matrix(1,0,0,1,0,0)"><path fill="rgb(229,232,255)" fill-opacity="1" d=" M-199.1179962158203,-187.50399780273438 C-199.1179962158203,-187.50399780273438 -212.26800537109375,-187.50399780273438 -212.26800537109375,-187.50399780273438 C-212.26800537109375,-187.50399780273438 -212.26800537109375,-181.3280029296875 -212.26800537109375,-181.3280029296875 C-212.26800537109375,-181.3280029296875 -199.1179962158203,-181.3280029296875 -199.1179962158203,-181.3280029296875 C-199.1179962158203,-181.3280029296875 -199.1179962158203,-187.50399780273438 -199.1179962158203,-187.50399780273438z"></path></g><g opacity="1" transform="matrix(1,0,0,1,0,0)"><path fill="rgb(229,232,255)" fill-opacity="1" d=" M-199.1179962158203,-152.01600646972656 C-199.1179962158203,-152.01600646972656 -212.26800537109375,-152.01600646972656 -212.26800537109375,-152.01600646972656 C-212.26800537109375,-152.01600646972656 -212.26800537109375,-145.83999633789062 -212.26800537109375,-145.83999633789062 C-212.26800537109375,-145.83999633789062 -199.1179962158203,-145.83999633789062 -199.1179962158203,-145.83999633789062 C-199.1179962158203,-145.83999633789062 -199.1179962158203,-152.01600646972656 -199.1179962158203,-152.01600646972656z"></path></g><g opacity="1" transform="matrix(1,0,0,1,0,0)"><path fill="rgb(229,232,255)" fill-opacity="1" d=" M-199.1179962158203,-116.52799987792969 C-199.1179962158203,-116.52799987792969 -212.26800537109375,-116.52799987792969 -212.26800537109375,-116.52799987792969 C-212.26800537109375,-116.52799987792969 -212.26800537109375,-110.35199737548828 -212.26800537109375,-110.35199737548828 C-212.26800537109375,-110.35199737548828 -199.1179962158203,-110.35199737548828 -199.1179962158203,-110.35199737548828 C-199.1179962158203,-110.35199737548828 -199.1179962158203,-116.52799987792969 -199.1179962158203,-116.52799987792969z"></path></g></g><g transform="matrix(1,0,0,1,256,256)" opacity="1" style="display: block;"><g opacity="1" transform="matrix(1,0,0,1,-9.660774230957031,0)"><g opacity="1" transform="matrix(1,0,0,1,0,0)"><path fill="rgb(229,232,255)" fill-opacity="1" d=" M-113.0250015258789,-205.2480010986328 C-113.0250015258789,-205.2480010986328 -157.4600067138672,-205.2480010986328 -157.4600067138672,-205.2480010986328 C-157.4600067138672,-205.2480010986328 -157.4600067138672,-199.07200622558594 -157.4600067138672,-199.07200622558594 C-157.4600067138672,-199.07200622558594 -113.0250015258789,-199.07200622558594 -113.0250015258789,-199.07200622558594 C-113.0250015258789,-199.07200622558594 -113.0250015258789,-205.2480010986328 -113.0250015258789,-205.2480010986328z"></path></g><g opacity="1" transform="matrix(1,0,0,1,0,0)"><path fill="rgb(229,232,255)" fill-opacity="1" d=" M-100.52799987792969,-205.2480010986328 C-100.52799987792969,-205.2480010986328 -100.52799987792969,-199.07200622558594 -100.52799987792969,-199.07200622558594 C-100.52799987792969,-199.07200622558594 -88.02999877929688,-199.07200622558594 -88.02999877929688,-199.07200622558594 C-88.02999877929688,-199.07200622558594 -88.02999877929688,-205.2480010986328 -88.02999877929688,-205.2480010986328 C-88.02999877929688,-205.2480010986328 -100.52799987792969,-205.2480010986328 -100.52799987792969,-205.2480010986328z"></path></g><g opacity="1" transform="matrix(1,0,0,1,0,0)"><path fill="rgb(229,232,255)" fill-opacity="1" d=" M-78.11100006103516,-205.2480010986328 C-78.11100006103516,-205.2480010986328 -78.11100006103516,-199.07200622558594 -78.11100006103516,-199.07200622558594 C-78.11100006103516,-199.07200622558594 -57.27199935913086,-199.07200622558594 -57.27199935913086,-199.07200622558594 C-57.27199935913086,-199.07200622558594 -57.27199935913086,-205.2480010986328 -57.27199935913086,-205.2480010986328 C-57.27199935913086,-205.2480010986328 -78.11100006103516,-205.2480010986328 -78.11100006103516,-205.2480010986328z"></path></g><g opacity="1" transform="matrix(1,0,0,1,0,0)"><path fill="rgb(229,232,255)" fill-opacity="1" d=" M-111.04100036621094,-187.50399780273438 C-111.04100036621094,-187.50399780273438 -126.91100311279297,-187.50399780273438 -126.91100311279297,-187.50399780273438 C-126.91100311279297,-187.50399780273438 -126.91100311279297,-181.3280029296875 -126.91100311279297,-181.3280029296875 C-126.91100311279297,-181.3280029296875 -111.04100036621094,-181.3280029296875 -111.04100036621094,-181.3280029296875 C-111.04100036621094,-181.3280029296875 -111.04100036621094,-187.50399780273438 -111.04100036621094,-187.50399780273438z"></path></g><g opacity="1" transform="matrix(1,0,0,1,0,0)"><path fill="rgb(255,65,72)" fill-opacity="1" d=" M-99.93199920654297,-169.75999450683594 C-99.93199920654297,-169.75999450683594 -99.93199920654297,-163.58399963378906 -99.93199920654297,-163.58399963378906 C-99.93199920654297,-163.58399963378906 -57.27199935913086,-163.58399963378906 -57.27199935913086,-163.58399963378906 C-57.27199935913086,-163.58399963378906 -57.27199935913086,-169.75999450683594 -57.27199935913086,-169.75999450683594 C-57.27199935913086,-169.75999450683594 -99.93199920654297,-169.75999450683594 -99.93199920654297,-169.75999450683594z"></path></g><g opacity="1" transform="matrix(1,0,0,1,0,0)"><path fill="rgb(229,232,255)" fill-opacity="1" d=" M-90.01399993896484,-152.01600646972656 C-90.01399993896484,-152.01600646972656 -90.01399993896484,-145.83999633789062 -90.01399993896484,-145.83999633789062 C-90.01399993896484,-145.83999633789062 -57.27199935913086,-145.83999633789062 -57.27199935913086,-145.83999633789062 C-57.27199935913086,-145.83999633789062 -57.27199935913086,-152.01600646972656 -57.27199935913086,-152.01600646972656 C-57.27199935913086,-152.01600646972656 -90.01399993896484,-152.01600646972656 -90.01399993896484,-152.01600646972656z"></path></g><g opacity="1" transform="matrix(1,0,0,1,0,0)"><path fill="rgb(255,65,72)" fill-opacity="1" d=" M-174.52000427246094,-134.27200317382812 C-174.52000427246094,-134.27200317382812 -174.52000427246094,-128.0959930419922 -174.52000427246094,-128.0959930419922 C-174.52000427246094,-128.0959930419922 -110.24800109863281,-128.0959930419922 -110.24800109863281,-128.0959930419922 C-110.24800109863281,-128.0959930419922 -110.24800109863281,-134.27200317382812 -110.24800109863281,-134.27200317382812 C-110.24800109863281,-134.27200317382812 -174.52000427246094,-134.27200317382812 -174.52000427246094,-134.27200317382812z"></path></g><g opacity="1" transform="matrix(1,0,0,1,0,0)"><path fill="rgb(255,210,79)" fill-opacity="1" d=" M-84.98699951171875,-116.52799987792969 C-84.98699951171875,-116.52799987792969 -84.98699951171875,-110.35199737548828 -84.98699951171875,-110.35199737548828 C-84.98699951171875,-110.35199737548828 -57.27199935913086,-110.35199737548828 -57.27199935913086,-110.35199737548828 C-57.27199935913086,-110.35199737548828 -57.27199935913086,-116.52799987792969 -57.27199935913086,-116.52799987792969 C-57.27199935913086,-116.52799987792969 -84.98699951171875,-116.52799987792969 -84.98699951171875,-116.52799987792969z"></path></g></g></g><g transform="matrix(1,0,0,1,256,256)" opacity="1" style="display: block;"><g opacity="1" transform="matrix(1,0,0,1,-3.9240264892578125,0)"><g opacity="1" transform="matrix(1,0,0,1,0,0)"><path fill="rgb(255,65,72)" fill-opacity="1" d=" M-176.9010009765625,-187.50399780273438 C-176.9010009765625,-187.50399780273438 -176.9010009765625,-181.3280029296875 -176.9010009765625,-181.3280029296875 C-176.9010009765625,-181.3280029296875 -157.06399536132812,-181.3280029296875 -157.06399536132812,-181.3280029296875 C-157.06399536132812,-181.3280029296875 -157.06399536132812,-187.50399780273438 -157.06399536132812,-187.50399780273438 C-157.06399536132812,-187.50399780273438 -176.9010009765625,-187.50399780273438 -176.9010009765625,-187.50399780273438z"></path></g><g opacity="1" transform="matrix(1,0,0,1,0,0)"><path fill="rgb(255,210,79)" fill-opacity="1" d=" M-97.552001953125,-187.50399780273438 C-97.552001953125,-187.50399780273438 -97.552001953125,-181.3280029296875 -97.552001953125,-181.3280029296875 C-97.552001953125,-181.3280029296875 -57.27199935913086,-181.3280029296875 -57.27199935913086,-181.3280029296875 C-57.27199935913086,-181.3280029296875 -57.27199935913086,-187.50399780273438 -57.27199935913086,-187.50399780273438 C-57.27199935913086,-187.50399780273438 -97.552001953125,-187.50399780273438 -97.552001953125,-187.50399780273438z"></path></g><g opacity="1" transform="matrix(1,0,0,1,0,0)"><path fill="rgb(229,232,255)" fill-opacity="1" d=" M-166.5850067138672,-169.75999450683594 C-166.5850067138672,-169.75999450683594 -166.5850067138672,-163.58399963378906 -166.5850067138672,-163.58399963378906 C-166.5850067138672,-163.58399963378906 -114.61199951171875,-163.58399963378906 -114.61199951171875,-163.58399963378906 C-114.61199951171875,-163.58399963378906 -114.61199951171875,-169.75999450683594 -114.61199951171875,-169.75999450683594 C-114.61199951171875,-169.75999450683594 -166.5850067138672,-169.75999450683594 -166.5850067138672,-169.75999450683594z"></path></g><g opacity="1" transform="matrix(1,0,0,1,0,0)"><path fill="rgb(255,210,79)" fill-opacity="1" d=" M-136.43299865722656,-152.01600646972656 C-136.43299865722656,-152.01600646972656 -159.84100341796875,-152.01600646972656 -159.84100341796875,-152.01600646972656 C-159.84100341796875,-152.01600646972656 -159.84100341796875,-145.83999633789062 -159.84100341796875,-145.83999633789062 C-159.84100341796875,-145.83999633789062 -136.43299865722656,-145.83999633789062 -136.43299865722656,-145.83999633789062 C-136.43299865722656,-145.83999633789062 -136.43299865722656,-152.01600646972656 -136.43299865722656,-152.01600646972656z"></path></g><g opacity="1" transform="matrix(1,0,0,1,0,0)"><path fill="rgb(229,232,255)" fill-opacity="1" d=" M-128.3000030517578,-152.01600646972656 C-128.3000030517578,-152.01600646972656 -128.3000030517578,-145.83999633789062 -128.3000030517578,-145.83999633789062 C-128.3000030517578,-145.83999633789062 -106.27999877929688,-145.83999633789062 -106.27999877929688,-145.83999633789062 C-106.27999877929688,-145.83999633789062 -106.27999877929688,-152.01600646972656 -106.27999877929688,-152.01600646972656 C-106.27999877929688,-152.01600646972656 -128.3000030517578,-152.01600646972656 -128.3000030517578,-152.01600646972656z"></path></g><g opacity="1" transform="matrix(1,0,0,1,0,0)"><path fill="rgb(229,232,255)" fill-opacity="1" d=" M-95.1709976196289,-134.27200317382812 C-95.1709976196289,-134.27200317382812 -95.1709976196289,-128.0959930419922 -95.1709976196289,-128.0959930419922 C-95.1709976196289,-128.0959930419922 -57.27199935913086,-128.0959930419922 -57.27199935913086,-128.0959930419922 C-57.27199935913086,-128.0959930419922 -57.27199935913086,-134.27200317382812 -57.27199935913086,-134.27200317382812 C-57.27199935913086,-134.27200317382812 -95.1709976196289,-134.27200317382812 -95.1709976196289,-134.27200317382812z"></path></g><g opacity="1" transform="matrix(1,0,0,1,0,0)"><path fill="rgb(255,210,79)" fill-opacity="1" d=" M-97.15499877929688,-116.52799987792969 C-97.15499877929688,-116.52799987792969 -164.9980010986328,-116.52799987792969 -164.9980010986328,-116.52799987792969 C-164.9980010986328,-116.52799987792969 -164.9980010986328,-110.35199737548828 -164.9980010986328,-110.35199737548828 C-164.9980010986328,-110.35199737548828 -97.15499877929688,-110.35199737548828 -97.15499877929688,-110.35199737548828 C-97.15499877929688,-110.35199737548828 -97.15499877929688,-116.52799987792969 -97.15499877929688,-116.52799987792969z"></path></g></g></g><g transform="matrix(1,0,0,1,256,256)" opacity="1" style="display: block;"><g opacity="1" transform="matrix(1,0,0,1,0,0)"><g opacity="1" transform="matrix(1,0,0,1,0,0)"><path fill="rgb(255,255,255)" fill-opacity="1" d=" M49.85200119018555,-233.06900024414062 C49.85200119018555,-233.06900024414062 49.85200119018555,-207.72000122070312 49.85200119018555,-207.72000122070312 C49.85200119018555,-202.51400756835938 45.62699890136719,-198.2899932861328 40.42100143432617,-198.2899932861328 C40.42100143432617,-198.2899932861328 -19.93400001525879,-198.2899932861328 -19.93400001525879,-198.2899932861328 C-25.14699935913086,-198.2899932861328 -29.364999771118164,-202.51400756835938 -29.364999771118164,-207.72000122070312 C-29.364999771118164,-207.72000122070312 -29.364999771118164,-233.06900024414062 -29.364999771118164,-233.06900024414062 C-29.364999771118164,-238.28199768066406 -25.14699935913086,-242.5 -19.93400001525879,-242.5 C-19.93400001525879,-242.5 40.42100143432617,-242.5 40.42100143432617,-242.5 C45.62699890136719,-242.5 49.85200119018555,-238.28199768066406 49.85200119018555,-233.06900024414062z"></path></g><g opacity="1" transform="matrix(1,0,0,1,0,0)"><path stroke-linecap="butt" stroke-linejoin="miter" fill-opacity="0" stroke-miterlimit="10" stroke="rgb(36,43,43)" stroke-opacity="1" stroke-width="1" d=" M49.85200119018555,-233.06900024414062 C49.85200119018555,-233.06900024414062 49.85200119018555,-207.72000122070312 49.85200119018555,-207.72000122070312 C49.85200119018555,-202.51400756835938 45.62699890136719,-198.2899932861328 40.42100143432617,-198.2899932861328 C40.42100143432617,-198.2899932861328 -19.93400001525879,-198.2899932861328 -19.93400001525879,-198.2899932861328 C-25.14699935913086,-198.2899932861328 -29.364999771118164,-202.51400756835938 -29.364999771118164,-207.72000122070312 C-29.364999771118164,-207.72000122070312 -29.364999771118164,-233.06900024414062 -29.364999771118164,-233.06900024414062 C-29.364999771118164,-238.28199768066406 -25.14699935913086,-242.5 -19.93400001525879,-242.5 C-19.93400001525879,-242.5 40.42100143432617,-242.5 40.42100143432617,-242.5 C45.62699890136719,-242.5 49.85200119018555,-238.28199768066406 49.85200119018555,-233.06900024414062z"></path></g></g></g><g transform="matrix(1,0,0,1,256,256)" opacity="1" style="display: block;"><g opacity="1" transform="matrix(1,0,0,1,0,0)"><g opacity="1" transform="matrix(1,0,0,1,0,0)"><path fill="rgb(0,122,253)" fill-opacity="1" d=" M-18.729999542236328,-219.968994140625 C-16.75,-219.968994140625 -16.469999313354492,-221.0570068359375 -16.469999313354492,-222.0330047607422 C-16.469999313354492,-222.81399536132812 -16.582000732421875,-223.59500122070312 -16.69300079345703,-224.37600708007812 C-16.80500030517578,-225.15699768066406 -16.91699981689453,-225.91000366210938 -16.91699981689453,-226.6909942626953 C-16.91699981689453,-229.2570037841797 -15.243000030517578,-230.3459930419922 -12.871999740600586,-230.3459930419922 C-12.871999740600586,-230.3459930419922 -12.286999702453613,-230.3459930419922 -12.286999702453613,-230.3459930419922 C-12.286999702453613,-230.3459930419922 -12.286999702453613,-228.81199645996094 -12.286999702453613,-228.81199645996094 C-12.286999702453613,-228.81199645996094 -12.788999557495117,-228.81199645996094 -12.788999557495117,-228.81199645996094 C-14.4350004196167,-228.81199645996094 -14.991999626159668,-227.91900634765625 -14.991999626159668,-226.41299438476562 C-14.991999626159668,-225.77099609375 -14.907999992370605,-225.1009979248047 -14.79699993133545,-224.4320068359375 C-14.6850004196167,-223.73500061035156 -14.60200023651123,-223.0659942626953 -14.60200023651123,-222.31300354003906 C-14.574000358581543,-220.5279998779297 -15.354999542236328,-219.63499450683594 -16.610000610351562,-219.3000030517578 C-16.610000610351562,-219.3000030517578 -16.610000610351562,-219.24400329589844 -16.610000610351562,-219.24400329589844 C-15.354999542236328,-218.93699645996094 -14.574000358581543,-217.98899841308594 -14.60200023651123,-216.20399475097656 C-14.60200023651123,-215.4510040283203 -14.6850004196167,-214.7530059814453 -14.79699993133545,-214.08399963378906 C-14.907999992370605,-213.38699340820312 -14.991999626159668,-212.7449951171875 -14.991999626159668,-212.0760040283203 C-14.991999626159668,-210.51400756835938 -14.35099983215332,-209.6490020751953 -12.788999557495117,-209.6490020751953 C-12.788999557495117,-209.6490020751953 -12.286999702453613,-209.6490020751953 -12.286999702453613,-209.6490020751953 C-12.286999702453613,-209.6490020751953 -12.286999702453613,-208.11500549316406 -12.286999702453613,-208.11500549316406 C-12.286999702453613,-208.11500549316406 -12.871999740600586,-208.11500549316406 -12.871999740600586,-208.11500549316406 C-15.187000274658203,-208.11500549316406 -16.91699981689453,-209.11900329589844 -16.91699981689453,-211.93600463867188 C-16.91699981689453,-212.68899536132812 -16.80500030517578,-213.47000122070312 -16.69300079345703,-214.22300720214844 C-16.582000732421875,-214.9759979248047 -16.469999313354492,-215.72900390625 -16.469999313354492,-216.48199462890625 C-16.469999313354492,-217.3470001220703 -16.75,-218.5469970703125 -18.729999542236328,-218.5469970703125 C-18.729999542236328,-218.5469970703125 -18.729999542236328,-219.968994140625 -18.729999542236328,-219.968994140625z"></path></g><g opacity="1" transform="matrix(1,0,0,1,0,0)"><path fill="rgb(0,122,253)" fill-opacity="1" d=" M-10.140999794006348,-212.68899536132812 C-10.140999794006348,-213.7209930419922 -9.442999839782715,-214.4459991455078 -8.467000007629395,-214.4459991455078 C-7.491000175476074,-214.4459991455078 -6.822000026702881,-213.7209930419922 -6.822000026702881,-212.68899536132812 C-6.822000026702881,-211.68499755859375 -7.4629998207092285,-210.9320068359375 -8.494999885559082,-210.9320068359375 C-9.470999717712402,-210.9320068359375 -10.140999794006348,-211.68499755859375 -10.140999794006348,-212.68899536132812z"></path></g><g opacity="1" transform="matrix(1,0,0,1,0,0)"><path fill="rgb(0,122,253)" fill-opacity="1" d=" M-4.36899995803833,-212.68899536132812 C-4.36899995803833,-213.7209930419922 -3.6710000038146973,-214.4459991455078 -2.694999933242798,-214.4459991455078 C-1.718999981880188,-214.4459991455078 -1.0490000247955322,-213.7209930419922 -1.0490000247955322,-212.68899536132812 C-1.0490000247955322,-211.68499755859375 -1.690999984741211,-210.9320068359375 -2.7230000495910645,-210.9320068359375 C-3.6989998817443848,-210.9320068359375 -4.36899995803833,-211.68499755859375 -4.36899995803833,-212.68899536132812z"></path></g><g opacity="1" transform="matrix(1,0,0,1,0,0)"><path fill="rgb(0,122,253)" fill-opacity="1" d=" M1.402999997138977,-212.68899536132812 C1.402999997138977,-213.7209930419922 2.0999999046325684,-214.4459991455078 3.0769999027252197,-214.4459991455078 C4.052999973297119,-214.4459991455078 4.7230000495910645,-213.7209930419922 4.7230000495910645,-212.68899536132812 C4.7230000495910645,-211.68499755859375 4.080999851226807,-210.9320068359375 3.0490000247955322,-210.9320068359375 C2.072000026702881,-210.9320068359375 1.402999997138977,-211.68499755859375 1.402999997138977,-212.68899536132812z"></path></g><g opacity="1" transform="matrix(1,0,0,1,0,0)"><path fill="rgb(0,122,253)" fill-opacity="1" d=" M7.175000190734863,-212.68899536132812 C7.175000190734863,-213.7209930419922 7.872000217437744,-214.4459991455078 8.848999977111816,-214.4459991455078 C9.826000213623047,-214.4459991455078 10.494000434875488,-213.7209930419922 10.494000434875488,-212.68899536132812 C10.494000434875488,-211.68499755859375 9.85200023651123,-210.9320068359375 8.819999694824219,-210.9320068359375 C7.843999862670898,-210.9320068359375 7.175000190734863,-211.68499755859375 7.175000190734863,-212.68899536132812z"></path></g><g opacity="1" transform="matrix(1,0,0,1,0,0)"><path fill="rgb(0,122,253)" fill-opacity="1" d=" M12.946999549865723,-212.68899536132812 C12.946999549865723,-213.7209930419922 13.644000053405762,-214.4459991455078 14.621000289916992,-214.4459991455078 C15.597999572753906,-214.4459991455078 16.267000198364258,-213.7209930419922 16.267000198364258,-212.68899536132812 C16.267000198364258,-211.68499755859375 15.625,-210.9320068359375 14.593000411987305,-210.9320068359375 C13.616999626159668,-210.9320068359375 12.946999549865723,-211.68499755859375 12.946999549865723,-212.68899536132812z"></path></g><g opacity="1" transform="matrix(1,0,0,1,0,0)"><path fill="rgb(0,122,253)" fill-opacity="1" d=" M24.409000396728516,-218.5469970703125 C22.429000854492188,-218.5469970703125 22.14900016784668,-217.3470001220703 22.14900016784668,-216.48199462890625 C22.14900016784668,-215.72900390625 22.261999130249023,-214.9759979248047 22.37299919128418,-214.22300720214844 C22.483999252319336,-213.47000122070312 22.59600067138672,-212.68899536132812 22.59600067138672,-211.93600463867188 C22.59600067138672,-209.11900329589844 20.839000701904297,-208.11500549316406 18.552000045776367,-208.11500549316406 C18.552000045776367,-208.11500549316406 17.965999603271484,-208.11500549316406 17.965999603271484,-208.11500549316406 C17.965999603271484,-208.11500549316406 17.965999603271484,-209.6490020751953 17.965999603271484,-209.6490020751953 C17.965999603271484,-209.6490020751953 18.440000534057617,-209.6490020751953 18.440000534057617,-209.6490020751953 C20.00200080871582,-209.677001953125 20.672000885009766,-210.51400756835938 20.672000885009766,-212.0760040283203 C20.672000885009766,-212.7449951171875 20.559999465942383,-213.38699340820312 20.476999282836914,-214.08399963378906 C20.364999771118164,-214.7530059814453 20.253000259399414,-215.4510040283203 20.253000259399414,-216.20399475097656 C20.253000259399414,-217.98899841308594 21.034000396728516,-218.93699645996094 22.261999130249023,-219.24400329589844 C22.261999130249023,-219.24400329589844 22.261999130249023,-219.3000030517578 22.261999130249023,-219.3000030517578 C21.034000396728516,-219.63499450683594 20.253000259399414,-220.5279998779297 20.253000259399414,-222.31300354003906 C20.253000259399414,-223.0659942626953 20.364999771118164,-223.73500061035156 20.476999282836914,-224.4320068359375 C20.559999465942383,-225.1009979248047 20.672000885009766,-225.77099609375 20.672000885009766,-226.41299438476562 C20.672000885009766,-227.91900634765625 20.086000442504883,-228.78399658203125 18.468000411987305,-228.81199645996094 C18.468000411987305,-228.81199645996094 17.965999603271484,-228.81199645996094 17.965999603271484,-228.81199645996094 C17.965999603271484,-228.81199645996094 17.965999603271484,-230.3459930419922 17.965999603271484,-230.3459930419922 C17.965999603271484,-230.3459930419922 18.523000717163086,-230.3459930419922 18.523000717163086,-230.3459930419922 C20.893999099731445,-230.3459930419922 22.59600067138672,-229.2570037841797 22.59600067138672,-226.6909942626953 C22.59600067138672,-225.91000366210938 22.483999252319336,-225.15699768066406 22.37299919128418,-224.37600708007812 C22.261999130249023,-223.59500122070312 22.14900016784668,-222.81399536132812 22.14900016784668,-222.0330047607422 C22.14900016784668,-221.0570068359375 22.429000854492188,-219.968994140625 24.409000396728516,-219.968994140625 C24.409000396728516,-219.968994140625 24.409000396728516,-218.5469970703125 24.409000396728516,-218.5469970703125z"></path></g></g></g><g transform="matrix(1,0,0,1,256,256)" opacity="1" style="display: block;"><g opacity="1" transform="matrix(1,0,0,1,0,0)"><path fill="rgb(255,238,227)" fill-opacity="1" d=" M-174.71400451660156,-47.0989990234375 C-174.71400451660156,-47.0989990234375 -174.71400451660156,-25.679000854492188 -174.71400451660156,-25.679000854492188 C-174.71400451660156,-19.065000534057617 -180.08200073242188,-13.70199966430664 -186.6909942626953,-13.70199966430664 C-186.6909942626953,-13.70199966430664 -236.85899353027344,-13.70199966430664 -236.85899353027344,-13.70199966430664 C-243.47900390625,-13.70199966430664 -248.83599853515625,-19.065000534057617 -248.83599853515625,-25.679000854492188 C-248.83599853515625,-25.679000854492188 -248.83599853515625,-47.0989990234375 -248.83599853515625,-47.0989990234375 C-248.83599853515625,-53.70800018310547 -243.47900390625,-59.07500076293945 -236.85899353027344,-59.07500076293945 C-236.85899353027344,-59.07500076293945 -186.6909942626953,-59.07500076293945 -186.6909942626953,-59.07500076293945 C-180.08200073242188,-59.07500076293945 -174.71400451660156,-53.70800018310547 -174.71400451660156,-47.0989990234375z"></path><path stroke-linecap="butt" stroke-linejoin="miter" fill-opacity="0" stroke-miterlimit="10" stroke="rgb(36,43,43)" stroke-opacity="1" stroke-width="1" d=" M-174.71400451660156,-47.0989990234375 C-174.71400451660156,-47.0989990234375 -174.71400451660156,-25.679000854492188 -174.71400451660156,-25.679000854492188 C-174.71400451660156,-19.065000534057617 -180.08200073242188,-13.70199966430664 -186.6909942626953,-13.70199966430664 C-186.6909942626953,-13.70199966430664 -236.85899353027344,-13.70199966430664 -236.85899353027344,-13.70199966430664 C-243.47900390625,-13.70199966430664 -248.83599853515625,-19.065000534057617 -248.83599853515625,-25.679000854492188 C-248.83599853515625,-25.679000854492188 -248.83599853515625,-47.0989990234375 -248.83599853515625,-47.0989990234375 C-248.83599853515625,-53.70800018310547 -243.47900390625,-59.07500076293945 -236.85899353027344,-59.07500076293945 C-236.85899353027344,-59.07500076293945 -186.6909942626953,-59.07500076293945 -186.6909942626953,-59.07500076293945 C-180.08200073242188,-59.07500076293945 -174.71400451660156,-53.70800018310547 -174.71400451660156,-47.0989990234375z"></path></g></g><g transform="matrix(1,0,0,1,256,256)" opacity="1" style="display: block;"><g opacity="1" transform="matrix(1,0,0,1,0,0)"><g opacity="1" transform="matrix(1,0,0,1,0,0)"><path fill="rgb(36,43,43)" fill-opacity="1" d=" M-232.3209991455078,-34.2130012512207 C-232.3209991455078,-34.2130012512207 -217.9980010986328,-41.59000015258789 -217.9980010986328,-41.59000015258789 C-217.9980010986328,-41.59000015258789 -217.9980010986328,-39.459999084472656 -217.9980010986328,-39.459999084472656 C-217.9980010986328,-39.459999084472656 -230.0679931640625,-33.40999984741211 -230.0679931640625,-33.40999984741211 C-230.0679931640625,-33.40999984741211 -230.0679931640625,-33.3489990234375 -230.0679931640625,-33.3489990234375 C-230.0679931640625,-33.3489990234375 -217.9980010986328,-27.29800033569336 -217.9980010986328,-27.29800033569336 C-217.9980010986328,-27.29800033569336 -217.9980010986328,-25.167999267578125 -217.9980010986328,-25.167999267578125 C-217.9980010986328,-25.167999267578125 -232.3209991455078,-32.54600143432617 -232.3209991455078,-32.54600143432617 C-232.3209991455078,-32.54600143432617 -232.3209991455078,-34.2130012512207 -232.3209991455078,-34.2130012512207z"></path></g><g opacity="1" transform="matrix(1,0,0,1,0,0)"><path fill="rgb(36,43,43)" fill-opacity="1" d=" M-215.9949951171875,-23.93400001525879 C-215.9949951171875,-23.93400001525879 -207.38299560546875,-46.3129997253418 -207.38299560546875,-46.3129997253418 C-207.38299560546875,-46.3129997253418 -205.28399658203125,-46.3129997253418 -205.28399658203125,-46.3129997253418 C-205.28399658203125,-46.3129997253418 -213.927001953125,-23.93400001525879 -213.927001953125,-23.93400001525879 C-213.927001953125,-23.93400001525879 -215.9949951171875,-23.93400001525879 -215.9949951171875,-23.93400001525879z"></path></g><g opacity="1" transform="matrix(1,0,0,1,0,0)"><path fill="rgb(36,43,43)" fill-opacity="1" d=" M-189.01800537109375,-32.51499938964844 C-189.01800537109375,-32.51499938964844 -203.34100341796875,-25.167999267578125 -203.34100341796875,-25.167999267578125 C-203.34100341796875,-25.167999267578125 -203.34100341796875,-27.29800033569336 -203.34100341796875,-27.29800033569336 C-203.34100341796875,-27.29800033569336 -191.1790008544922,-33.3489990234375 -191.1790008544922,-33.3489990234375 C-191.1790008544922,-33.3489990234375 -191.1790008544922,-33.40999984741211 -191.1790008544922,-33.40999984741211 C-191.1790008544922,-33.40999984741211 -203.34100341796875,-39.459999084472656 -203.34100341796875,-39.459999084472656 C-203.34100341796875,-39.459999084472656 -203.34100341796875,-41.59000015258789 -203.34100341796875,-41.59000015258789 C-203.34100341796875,-41.59000015258789 -189.01800537109375,-34.24399948120117 -189.01800537109375,-34.24399948120117 C-189.01800537109375,-34.24399948120117 -189.01800537109375,-32.51499938964844 -189.01800537109375,-32.51499938964844z"></path></g></g></g><g transform="matrix(1,0,0,1,256,256)" opacity="1" style="display: block;"><g opacity="1" transform="matrix(0.9848141670227051,0.17361171543598175,-0.17361171543598175,0.9848141670227051,33.95500183105469,40.017791748046875)"><g opacity="1" transform="matrix(1,0,0,1,0,0)"><path fill="rgb(4,181,164)" fill-opacity="1" d=" M-208.85000610351562,210.59500122070312 C-208.85000610351562,210.59500122070312 -225.4600067138672,164.9739990234375 -213.66900634765625,150.1199951171875 C-201.8780059814453,135.26600646972656 -188.9969940185547,149.20700073242188 -188.9969940185547,149.20700073242188 C-188.9969940185547,149.20700073242188 -187.00999450683594,117.32599639892578 -170.9080047607422,100.61599731445312 C-154.80599975585938,83.90599822998047 -135.11300659179688,91.77899932861328 -130.69200134277344,104.927001953125 C-126.27100372314453,118.07499694824219 -144.8679962158203,129.49600219726562 -151.83299255371094,133.03599548339844 C-158.79800415039062,136.5760040283203 -169.23800659179688,146.19900512695312 -165.25799560546875,149.656005859375 C-161.2779998779297,153.11300659179688 -149.28900146484375,146.87100219726562 -150.47000122070312,162.427001953125 C-151.6510009765625,177.98300170898438 -208.85000610351562,210.59500122070312 -208.85000610351562,210.59500122070312z"></path></g><g opacity="1" transform="matrix(1,0,0,1,0,0)"><path stroke-linecap="butt" stroke-linejoin="miter" fill-opacity="0" stroke-miterlimit="10" stroke="rgb(0,0,0)" stroke-opacity="1" stroke-width="1" d=" M-160.35000610351562,116.7020034790039 C-160.35000610351562,116.7020034790039 -205.18699645996094,189.63400268554688 -214.00900268554688,225.99000549316406"></path></g><g opacity="1" transform="matrix(1,0,0,1,0,0)"><path stroke-linecap="butt" stroke-linejoin="miter" fill-opacity="0" stroke-miterlimit="10" stroke="rgb(0,0,0)" stroke-opacity="1" stroke-width="1" d=" M-199.00399780273438,187.35000610351562 C-199.00399780273438,187.35000610351562 -183.63699340820312,164.6909942626953 -169.718994140625,163.41400146484375"></path></g><g opacity="1" transform="matrix(1,0,0,1,0,0)"><path stroke-linecap="butt" stroke-linejoin="miter" fill-opacity="0" stroke-miterlimit="10" stroke="rgb(0,0,0)" stroke-opacity="1" stroke-width="1" d=" M-202.7429962158203,195.27499389648438 C-202.7429962158203,195.27499389648438 -197.96200561523438,182.60800170898438 -209.72000122070312,164.56399536132812"></path></g><g opacity="1" transform="matrix(1,0,0,1,0,0)"><path fill="rgb(4,181,164)" fill-opacity="1" d=" M-218.29200744628906,202.64199829101562 C-218.29200744628906,202.64199829101562 -185.11300659179688,167.19700622558594 -190.1300048828125,148.9080047607422 C-195.14700317382812,130.61900329589844 -212.46499633789062,138.38699340820312 -212.46499633789062,138.38699340820312 C-212.46499633789062,138.38699340820312 -201.78399658203125,108.28299713134766 -210.03799438476562,86.59500122070312 C-218.29200744628906,64.90699768066406 -239.4949951171875,64.4219970703125 -248.72000122070312,74.77999877929688 C-257.94500732421875,85.13800048828125 -245.3209991455078,102.94300079345703 -240.3040008544922,108.93099975585938 C-235.28700256347656,114.91899871826172 -229.4600067138672,127.86799621582031 -234.4770050048828,129.48599243164062 C-239.49400329589844,131.10400390625 -248.072998046875,120.65799713134766 -253.08999633789062,135.42999267578125 C-258.10699462890625,150.20199584960938 -218.29200744628906,202.64199829101562 -218.29200744628906,202.64199829101562z"></path></g><g opacity="1" transform="matrix(1,0,0,1,0,0)"><path stroke-linecap="butt" stroke-linejoin="miter" fill-opacity="0" stroke-miterlimit="10" stroke="rgb(0,0,0)" stroke-opacity="1" stroke-width="1" d=" M-226.06100463867188,97.2490005493164 C-226.06100463867188,97.2490005493164 -213.43699645996094,181.9250030517578 -219.58700561523438,218.82699584960938"></path></g><g opacity="1" transform="matrix(1,0,0,1,0,0)"><path stroke-linecap="butt" stroke-linejoin="miter" fill-opacity="0" stroke-miterlimit="10" stroke="rgb(0,0,0)" stroke-opacity="1" stroke-width="1" d=" M-218.2270050048828,177.39700317382812 C-218.2270050048828,177.39700317382812 -223.4709930419922,150.5260009765625 -235.77200317382812,143.88999938964844"></path></g><g opacity="1" transform="matrix(1,0,0,1,0,0)"><path stroke-linecap="butt" stroke-linejoin="miter" fill-opacity="0" stroke-miterlimit="10" stroke="rgb(0,0,0)" stroke-opacity="1" stroke-width="1" d=" M-217.8979949951172,186.1540069580078 C-217.8979949951172,186.1540069580078 -217.32400512695312,172.6280059814453 -199.4290008544922,160.6439971923828"></path></g></g></g><g transform="matrix(1,0,0,1,256,256)" opacity="1" style="display: block;"><g opacity="1" transform="matrix(1,0,0,1,0,0)"><path fill="rgb(255,255,255)" fill-opacity="1" d=" M-233.73500061035156,217.36700439453125 C-233.73500061035156,217.36700439453125 -229.29800415039062,240.38400268554688 -229.29800415039062,240.38400268554688 C-229.06500244140625,241.61199951171875 -227.98800659179688,242.5 -226.73800659179688,242.5 C-226.73800659179688,242.5 -199.94000244140625,242.5 -199.94000244140625,242.5 C-198.69000244140625,242.5 -197.61399841308594,241.61199951171875 -197.3800048828125,240.38400268554688 C-197.3800048828125,240.38400268554688 -192.9429931640625,217.36700439453125 -192.9429931640625,217.36700439453125 C-192.63400268554688,215.7550048828125 -193.8699951171875,214.26400756835938 -195.50399780273438,214.26400756835938 C-195.50399780273438,214.26400756835938 -231.1739959716797,214.26400756835938 -231.1739959716797,214.26400756835938 C-232.80799865722656,214.26400756835938 -234.04400634765625,215.7550048828125 -233.73500061035156,217.36700439453125z"></path></g><g opacity="1" transform="matrix(1,0,0,1,0,0)"><path fill="rgb(229,232,255)" fill-opacity="1" d=" M-233.73500061035156,217.36700439453125 C-233.73500061035156,217.36700439453125 -229.29800415039062,240.38400268554688 -229.29800415039062,240.38400268554688 C-229.06500244140625,241.61199951171875 -227.98800659179688,242.5 -226.73800659179688,242.5 C-226.73800659179688,242.5 -199.94000244140625,242.5 -199.94000244140625,242.5 C-198.69000244140625,242.5 -197.61399841308594,241.61199951171875 -197.3800048828125,240.38400268554688 C-197.3800048828125,240.38400268554688 -197.3040008544922,239.9770050048828 -197.3040008544922,239.9770050048828 C-197.3939971923828,239.98399353027344 -197.47799682617188,239.99200439453125 -197.5679931640625,239.99200439453125 C-197.5679931640625,239.99200439453125 -224.36500549316406,239.99200439453125 -224.36500549316406,239.99200439453125 C-225.61500549316406,239.99200439453125 -226.69200134277344,239.10400390625 -226.92599487304688,237.87600708007812 C-226.92599487304688,237.87600708007812 -231.36199951171875,214.85899353027344 -231.36199951171875,214.85899353027344 C-231.39999389648438,214.66299438476562 -231.4149932861328,214.4669952392578 -231.39999389648438,214.2790069580078 C-232.92100524902344,214.40699768066406 -234.0290069580078,215.83099365234375 -233.73500061035156,217.36700439453125z"></path></g><g opacity="1" transform="matrix(1,0,0,1,0,0)"><path stroke-linecap="butt" stroke-linejoin="miter" fill-opacity="0" stroke-miterlimit="10" stroke="rgb(0,0,0)" stroke-opacity="1" stroke-width="1" d=" M-233.73500061035156,217.36700439453125 C-233.73500061035156,217.36700439453125 -229.29800415039062,240.38400268554688 -229.29800415039062,240.38400268554688 C-229.06500244140625,241.61199951171875 -227.98800659179688,242.5 -226.73800659179688,242.5 C-226.73800659179688,242.5 -199.94000244140625,242.5 -199.94000244140625,242.5 C-198.69000244140625,242.5 -197.61399841308594,241.61199951171875 -197.3800048828125,240.38400268554688 C-197.3800048828125,240.38400268554688 -192.9429931640625,217.36700439453125 -192.9429931640625,217.36700439453125 C-192.63400268554688,215.7550048828125 -193.8699951171875,214.26400756835938 -195.50399780273438,214.26400756835938 C-195.50399780273438,214.26400756835938 -231.1739959716797,214.26400756835938 -231.1739959716797,214.26400756835938 C-232.80799865722656,214.26400756835938 -234.04400634765625,215.7550048828125 -233.73500061035156,217.36700439453125z"></path></g></g><g transform="matrix(1,0,0,1,256,256)" opacity="1" style="display: block;"><g opacity="1" transform="matrix(1,0,0,1,0,0)"><path fill="rgb(255,207,197)" fill-opacity="1" d=" M93.55799865722656,-175.79200744628906 C93.22899627685547,-175.07400512695312 92.99099731445312,-174.24099731445312 92.83300018310547,-173.31900024414062 C93.10299682617188,-174.125 93.34500122070312,-174.94900512695312 93.55799865722656,-175.79200744628906z"></path></g><g opacity="1" transform="matrix(1,0,0,1,0,0)"><path fill="rgb(255,207,197)" fill-opacity="1" d=" M134.0959930419922,-112.9469985961914 C134.0959930419922,-112.9469985961914 129.27200317382812,-102.1240005493164 129.27200317382812,-102.1240005493164 C129.27200317382812,-102.1240005493164 114.55999755859375,-100.16400146484375 114.55999755859375,-100.16400146484375 C114.55999755859375,-100.16400146484375 106.48699951171875,-98.07599639892578 106.48699951171875,-98.07599639892578 C106.48699951171875,-98.07599639892578 108.47000122070312,-110.97200012207031 108.47000122070312,-110.97200012207031 C108.47000122070312,-110.97200012207031 108.1760025024414,-114.15299987792969 108.1760025024414,-114.15299987792969 C108.1760025024414,-114.15299987792969 107.38400268554688,-122.56500244140625 107.38400268554688,-122.56500244140625 C107.38400268554688,-122.56500244140625 131.84300231933594,-139.30499267578125 131.84300231933594,-139.30499267578125 C131.7830047607422,-138.19700622558594 131.74400329589844,-137.0959930419922 131.72900390625,-136.01800537109375 C131.5030059814453,-123.17500305175781 134.0959930419922,-112.9469985961914 134.0959930419922,-112.9469985961914z"></path></g><g opacity="1" transform="matrix(1,0,0,1,0,0)"><path fill="rgb(252,155,136)" fill-opacity="1" d=" M131.84300231933594,-139.30499267578125 C131.7830047607422,-138.19700622558594 131.74400329589844,-137.0959930419922 131.72900390625,-136.01800537109375 C131.5709991455078,-135.98800659179688 131.42100524902344,-135.96600341796875 131.27000427246094,-135.9510040283203 C131.01400756835938,-135.27999877929688 130.83999633789062,-134.51100158691406 130.74200439453125,-133.65899658203125 C127.72699737548828,-122.2020034790039 116.86599731445312,-114.54499816894531 108.1760025024414,-114.15299987792969 C108.1760025024414,-114.15299987792969 107.38400268554688,-122.56500244140625 107.38400268554688,-122.56500244140625 C107.38400268554688,-122.56500244140625 131.84300231933594,-139.30499267578125 131.84300231933594,-139.30499267578125z"></path></g><g opacity="1" transform="matrix(1,0,0,1,0,0)"><path fill="rgb(242,50,67)" fill-opacity="1" d=" M134.0989990234375,-112.94599914550781 C131.7259979248047,-106.86199951171875 122.24800109863281,-103.17400360107422 114.56199645996094,-100.16600036621094 C114.56199645996094,-100.16600036621094 117.27400207519531,-86.48600006103516 119.61299896240234,-86.5979995727539 C121.76799774169922,-86.70099639892578 141.1820068359375,-93.78299713134766 140.6199951171875,-104.47599792480469 C137.46600341796875,-106.5999984741211 136.57000732421875,-109.87799835205078 134.0989990234375,-112.94599914550781z"></path></g><g opacity="1" transform="matrix(1,0,0,1,0,0)"><path fill="rgb(242,50,67)" fill-opacity="1" d=" M114.55999755859375,-100.16400146484375 C114.55999755859375,-100.16400146484375 110.4209976196289,-89.59400177001953 107.38400268554688,-88.64399719238281 C103.9260025024414,-87.56300354003906 100.91999816894531,-97.25900268554688 101.28199768066406,-102.44499969482422 C101.28199768066406,-102.44499969482422 108.47000122070312,-110.9729995727539 108.47000122070312,-110.9729995727539 C107.91999816894531,-107.38899993896484 106.75800323486328,-104.19000244140625 114.55999755859375,-100.16400146484375z"></path></g><g opacity="1" transform="matrix(1,0,0,1,0,0)"><path fill="rgb(255,207,197)" fill-opacity="1" d=" M107.54299926757812,-121.26499938964844 C116.21700286865234,-119.63400268554688 128.92300415039062,-125.37899780273438 134.0070037841797,-136.5659942626953 C134.24099731445312,-137.38600158691406 134.53900146484375,-138.11700439453125 134.9080047607422,-138.73500061035156 C136.98399353027344,-138.60699462890625 139.37399291992188,-139.5679931640625 141.26800537109375,-141.46600341796875 C144.27000427246094,-144.47999572753906 144.9010009765625,-148.75599670410156 142.63999938964844,-150.97999572753906 C141.35400390625,-152.26100158691406 139.4530029296875,-152.61300659179688 137.4600067138672,-152.08999633789062 C137.79400634765625,-164.51100158691406 132.31700134277344,-174.8209991455078 123.62000274658203,-176.6699981689453 C117.81600189208984,-177.9040069580078 111.80400085449219,-175.1269989013672 107.0250015258789,-169.74600219726562 C106.4489974975586,-169.10000610351562 105.88500213623047,-168.41299438476562 105.3499984741211,-167.69000244140625 C102.27300262451172,-163.57200622558594 99.86900329589844,-158.29100036621094 98.62100219726562,-152.32899475097656 C95.2770004272461,-136.68499755859375 98.427001953125,-122.98500061035156 107.54299926757812,-121.26499938964844z"></path></g><g opacity="1" transform="matrix(1,0,0,1,0,0)"><path fill="rgb(0,0,0)" fill-opacity="1" d=" M151.1020050048828,-134.5019989013672 C149.22900390625,-131.31700134277344 145.73800659179688,-129.31100463867188 142.11900329589844,-128.58799743652344 C138.24400329589844,-127.81999969482422 134.67999267578125,-126.06700134277344 131.1750030517578,-127.88800048828125 C131.1750030517578,-127.88800048828125 131.656005859375,-128.4709930419922 131.656005859375,-128.4709930419922 C132.02499389648438,-131.468994140625 133.31100463867188,-134.2220001220703 134.01199340820312,-136.56900024414062 C134.23899841308594,-137.3820037841797 134.54200744628906,-138.1199951171875 134.9040069580078,-138.73300170898438 C136.98599243164062,-138.60899353027344 139.37600708007812,-139.5679931640625 141.2689971923828,-141.46299743652344 C144.26800537109375,-144.48300170898438 144.8990020751953,-148.75900268554688 142.64199829101562,-150.97999572753906 C141.35299682617188,-152.26400756835938 139.45199584960938,-152.61500549316406 137.46400451660156,-152.09300231933594 C137.46400451660156,-152.09300231933594 132.91700744628906,-150.45399475097656 132.6529998779297,-146.55999755859375 C132.6529998779297,-146.55999755859375 129.5959930419922,-145.8560028076172 129.5959930419922,-145.8560028076172 C129.5959930419922,-145.8560028076172 128.93899536132812,-153.03900146484375 128.93899536132812,-153.03900146484375 C128.93899536132812,-153.03900146484375 124.47200012207031,-157.07400512695312 127.16400146484375,-160.74099731445312 C124.01799774169922,-159.98199462890625 120.66699981689453,-159.8419952392578 117.44999694824219,-160.12399291992188 C116.04299926757812,-160.2480010986328 114.5719985961914,-160.51800537109375 113.51399993896484,-161.4429931640625 C112.59700012207031,-162.25599670410156 112.1729965209961,-163.72999572753906 112.73200225830078,-164.77000427246094 C113.51300048828125,-165.18699645996094 114.28700256347656,-165.61399841308594 115.06199645996094,-166.0500030517578 C114.39199829101562,-165.76499938964844 113.72200012207031,-165.47900390625 113.04399871826172,-165.19500732421875 C112.91600036621094,-165.0659942626953 112.81199645996094,-164.9250030517578 112.73200225830078,-164.77000427246094 C110.6729965209961,-163.6750030517578 108.56500244140625,-162.7030029296875 106.3030014038086,-162.18299865722656 C103.18000030517578,-161.4550018310547 99.68900299072266,-161.68600463867188 97.0770034790039,-163.54200744628906 C96.0469970703125,-164.26699829101562 95.15499877929688,-165.2790069580078 94.84700012207031,-166.49400329589844 C94.54100036621094,-167.7169952392578 94.93000030517578,-169.16900634765625 95.98799896240234,-169.85800170898438 C96.21900177001953,-170.01400756835938 96.48300170898438,-170.11000061035156 96.75800323486328,-170.16099548339844 C97.5459976196289,-169.73399353027344 98.36199951171875,-169.36500549316406 99.17900085449219,-169.00399780273438 C98.81099700927734,-169.91799926757812 97.72100067138672,-170.34300231933594 96.75800323486328,-170.16099548339844 C95.98600006103516,-170.5760040283203 95.25199890136719,-171.0570068359375 94.60700225830078,-171.64599609375 C93.29399871826172,-172.8459930419922 92.35700225830078,-174.58399963378906 92.58499908447266,-176.33700561523438 C92.85099792480469,-178.3679962158203 94.79299926757812,-180.02499389648438 96.83999633789062,-180.01300048828125 C98.88600158691406,-179.9929962158203 100.79100036621094,-178.36399841308594 101.16600036621094,-176.34800720214844 C102.02100372314453,-179.697998046875 103.76699829101562,-182.81700134277344 106.1760025024414,-185.2899932861328 C107.42400360107422,-186.57699584960938 108.89399719238281,-187.7010040283203 110.5979995727539,-188.2270050048828 C112.31099700927734,-188.75100708007812 114.30500030517578,-188.58099365234375 115.7040023803711,-187.47300720214844 C117.11199951171875,-186.36399841308594 117.71299743652344,-184.22000122070312 116.81199645996094,-182.6790008544922 C120.03099822998047,-184.7030029296875 123.70099639892578,-186.2429962158203 127.50199890136719,-186.16299438476562 C131.30299377441406,-186.08299255371094 135.22500610351562,-184.10299682617188 136.82000732421875,-180.65499877929688 C137.60499572753906,-178.9600067138672 137.77200317382812,-177.1300048828125 137.61599731445312,-175.2760009765625 C141.4929962158203,-170.8979949951172 140.7740020751953,-166.5760040283203 140.7740020751953,-166.5760040283203 C143.26400756835938,-168.37899780273438 147.50100708007812,-167.21200561523438 149.4980010986328,-164.87600708007812 C151.49400329589844,-162.531005859375 151.34100341796875,-158.66200256347656 149.16900634765625,-156.48599243164062 C150.5240020751953,-157.9320068359375 153.03700256347656,-157.78799438476562 154.5489959716797,-156.50999450683594 C156.05299377441406,-155.23399353027344 156.66299438476562,-153.13400268554688 156.6009979248047,-151.15699768066406 C156.48300170898438,-147.54800415039062 154.24200439453125,-144.07899475097656 151.00799560546875,-142.49200439453125 C153.4770050048828,-139.7469940185547 152.96499633789062,-137.67999267578125 151.1020050048828,-134.5019989013672z"></path></g><g opacity="1" transform="matrix(1,0,0,1,0,0)"><path fill="rgb(0,0,0)" fill-opacity="1" d=" M99.17900085449219,-169.00399780273438 C98.36199951171875,-169.36500549316406 97.5459976196289,-169.73399353027344 96.75800323486328,-170.16099548339844 C97.72100067138672,-170.34300231933594 98.81099700927734,-169.91799926757812 99.17900085449219,-169.00399780273438z"></path></g><g opacity="1" transform="matrix(1,0,0,1,0,0)"><path fill="rgb(0,0,0)" fill-opacity="1" d=" M115.06199645996094,-166.0500030517578 C114.28700256347656,-165.61399841308594 113.51300048828125,-165.18699645996094 112.73200225830078,-164.77000427246094 C112.81199645996094,-164.9250030517578 112.91600036621094,-165.0659942626953 113.04399871826172,-165.19500732421875 C113.72200012207031,-165.47900390625 114.39199829101562,-165.76499938964844 115.06199645996094,-166.0500030517578z"></path></g><g opacity="1" transform="matrix(1,0,0,1,0,0)"><path fill="rgb(252,155,136)" fill-opacity="1" d=" M105.21099853515625,-149.18699645996094 C105.21099853515625,-149.18699645996094 101.33000183105469,-139.71099853515625 101.33000183105469,-139.71099853515625 C101.33000183105469,-139.71099853515625 106.11599731445312,-138.4429931640625 106.11599731445312,-138.4429931640625 C106.11599731445312,-138.4429931640625 105.21099853515625,-149.18699645996094 105.21099853515625,-149.18699645996094z"></path></g></g></g></svg>